ply
format ascii 1.0
comment VCGLIB generated
element vertex 459
property float x
property float y
property float z
property float nx
property float ny
property float nz
property uchar red
property uchar green
property uchar blue
property uchar alpha
element face 166
property list uchar int vertex_indices
end_header
-0.05081148 0.01826158 0.06851999 -0.7513508 0.2748781 0.5999284 39 39 39 255 
-0.04468563 0.05438723 0.05963979 -0.7513508 0.2748781 0.5999284 39 39 39 255 
-0.06477006 0.0247546 0.04806324 -0.7513508 0.2748781 0.5999284 39 39 39 255 
-0.02198982 0.03678795 0.08406522 -0.4566457 0.4643218 0.7588676 39 39 39 255 
-0.04468563 0.05438723 0.05963979 -0.4566457 0.4643218 0.7588676 39 39 39 255 
-0.03994226 0.03429969 0.07478489 -0.4566457 0.4643218 0.7588676 39 39 39 255 
-0.02198982 0.03678795 0.08406522 -0.1245788 0.3617065 0.9239311 39 39 39 255 
0.01531241 0.03585248 0.08946113 -0.1245788 0.3617065 0.9239311 39 39 39 255 
-0.01151467 0.05898639 0.07678728 -0.1245788 0.3617065 0.9239311 39 39 39 255 
-0.004888976 0.004075025 0.09134528 0.0502945 0.02722047 0.9983634 39 39 39 255 
0.01531241 0.03585248 0.08946113 0.0502945 0.02722047 0.9983634 39 39 39 255 
-0.007470382 0.0242682 0.09092479 0.0502945 0.02722047 0.9983634 39 39 39 255 
-0.004888976 0.004075025 0.09134528 -0.0344866 -0.3432723 0.9386026 39 39 39 255 
0 -0.03109345 0.07866285 -0.0344866 -0.3432723 0.9386026 39 39 39 255 
0.02008353 -0.001458882 0.09023893 -0.0344866 -0.3432723 0.9386026 39 39 39 255 
-0.03371063 -0.01445115 0.07579993 -0.3291989 -0.5327069 0.7796482 39 39 39 255 
0 -0.03109345 0.07866285 -0.3291989 -0.5327069 0.7796482 39 39 39 255 
-0.01575819 -0.0119629 0.08508027 -0.3291989 -0.5327069 0.7796482 39 39 39 255 
-0.03371063 -0.01445115 0.07579993 -0.6612445 -0.4301344 0.6146057 39 39 39 255 
-0.06000047 -0.0125578 0.04884021 -0.6612445 -0.4301344 0.6146057 39 39 39 255 
-0.03317188 -0.03569069 0.06151486 -0.6612445 -0.4301344 0.6146057 39 39 39 255 
-0.05081148 0.01826158 0.06851999 -0.8361054 -0.09563472 0.5401683 39 39 39 255 
-0.06000047 -0.0125578 0.04884021 -0.8361054 -0.09563472 0.5401683 39 39 39 255 
-0.04823007 -0.001931586 0.06894049 -0.8361054 -0.09563472 0.5401683 39 39 39 255 
-0.04468563 0.05438723 0.05963979 -0.8455019 0.5024531 0.1807414 39 39 39 255 
-0.06752395 0.0296655 0.02152833 -0.8455019 0.5024531 0.1807414 39 39 39 255 
-0.06477006 0.0247546 0.04806324 -0.8455019 0.5024531 0.1807414 39 39 39 255 
-0.04468563 0.05438723 0.05963979 -0.3466288 0.8230707 0.4498924 39 39 39 255 
0.002055859 0.07439043 0.05905715 -0.3466288 0.8230707 0.4498924 39 39 39 255 
-0.04128446 0.06838454 0.03665264 -0.3466288 0.8230707 0.4498924 39 39 39 255 
-0.01151467 0.05898639 0.07678728 0.2155159 0.6494633 0.7292122 39 39 39 255 
0.03710839 0.04416545 0.07561703 0.2155159 0.6494633 0.7292122 39 39 39 255 
0.002055859 0.07439043 0.05905715 0.2155159 0.6494633 0.7292122 39 39 39 255 
0.02008353 -0.001458882 0.09023893 0.5114853 0.08323302 0.8552515 39 39 39 255 
0.03710839 0.04416545 0.07561703 0.5114853 0.08323302 0.8552515 39 39 39 255 
0.01531241 0.03585248 0.08946113 0.5114853 0.08323302 0.8552515 39 39 39 255 
0 -0.03109345 0.07866285 0.3680463 -0.5439878 0.7540684 39 39 39 255 
0.04334078 -0.004584885 0.07663247 0.3680463 -0.5439878 0.7540684 39 39 39 255 
0.02008353 -0.001458882 0.09023893 0.3680463 -0.5439878 0.7540684 39 39 39 255 
0 -0.03109345 0.07866285 -0.1308924 -0.8646789 0.4849718 39 39 39 255 
-0.02623948 -0.04930906 0.03910352 -0.1308924 -0.8646789 0.4849718 39 39 39 255 
0.0171013 -0.04330372 0.06150803 -0.1308924 -0.8646789 0.4849718 39 39 39 255 
-0.03317188 -0.03569069 0.06151486 -0.6929719 -0.6910408 0.2055544 39 39 39 255 
-0.06129155 -0.01908484 0.02254377 -0.6929719 -0.6910408 0.2055544 39 39 39 255 
-0.02623948 -0.04930906 0.03910352 -0.6929719 -0.6910408 0.2055544 39 39 39 255 
-0.06477006 0.0247546 0.04806324 -0.9889941 -0.1247658 0.07952459 39 39 39 255 
-0.06129155 -0.01908484 0.02254377 -0.9889941 -0.1247658 0.07952459 39 39 39 255 
-0.06000047 -0.0125578 0.04884021 -0.9889941 -0.1247658 0.07952459 39 39 39 255 
-0.06752395 0.0296655 0.02152833 -0.7834785 0.5975599 -0.1705392 39 39 39 255 
-0.03159774 0.07403746 0.01195609 -0.7834785 0.5975599 -0.1705392 39 39 39 255 
-0.05999956 0.03212707 -0.004414788 -0.7834785 0.5975599 -0.1705392 39 39 39 255 
0.002055859 0.07439043 0.05905715 -0.206815 0.9682375 0.140512 39 39 39 255 
-0.03159774 0.07403746 0.01195609 -0.206815 0.9682375 0.140512 39 39 39 255 
-0.04128446 0.06838454 0.03665264 -0.206815 0.9682375 0.140512 39 39 39 255 
0.03710839 0.04416545 0.07561703 0.4428927 0.7675266 0.46341 39 39 39 255 
0.01531332 0.08053716 0.03620625 0.4428927 0.7675266 0.46341 39 39 39 255 
0.002055859 0.07439043 0.05905715 0.4428927 0.7675266 0.46341 39 39 39 255 
0.04334078 -0.004584885 0.07663247 0.7849668 0.1130403 0.609138 39 39 39 255 
0.05325463 0.04782443 0.05413112 0.7849668 0.1130403 0.609138 39 39 39 255 
0.03710839 0.04416545 0.07561703 0.7849668 0.1130403 0.609138 39 39 39 255 
0.0171013 -0.04330372 0.06150803 0.6191838 -0.6118667 0.4921692 39 39 39 255 
0.05999894 -0.00494352 0.05522932 0.6191838 -0.6118667 0.4921692 39 39 39 255 
0.04334078 -0.004584885 0.07663247 0.6191838 -0.6118667 0.4921692 39 39 39 255 
-0.02623948 -0.04930906 0.03910352 0.04251639 -0.9825432 0.1811111 39 39 39 255 
0.03159775 -0.0468514 0.03885898 0.04251639 -0.9825432 0.1811111 39 39 39 255 
0.0171013 -0.04330372 0.06150803 0.04251639 -0.9825432 0.1811111 39 39 39 255 
-0.02623948 -0.04930906 0.03910352 -0.6071875 -0.7818166 -0.1417258 39 39 39 255 
-0.05325464 -0.02063837 -0.003316063 -0.6071875 -0.7818166 -0.1417258 39 39 39 255 
-0.01531394 -0.0533536 0.01460827 -0.6071875 -0.7818166 -0.1417258 39 39 39 255 
-0.06129155 -0.01908484 0.02254377 -0.9493133 -0.1273336 -0.2873856 39 39 39 255 
-0.05999956 0.03212707 -0.004414788 -0.9493133 -0.1273336 -0.2873856 39 39 39 255 
-0.05325464 -0.02063837 -0.003316063 -0.9493133 -0.1273336 -0.2873856 39 39 39 255 
-0.03159774 0.07403746 0.01195609 -0.6192115 0.6118616 -0.4921407 39 39 39 255 
-0.04334079 0.03177095 -0.0258174 -0.6192115 0.6118616 -0.4921407 39 39 39 255 
-0.05999956 0.03212707 -0.004414788 -0.6192115 0.6118616 -0.4921407 39 39 39 255 
-0.03159774 0.07403746 0.01195609 -0.04253166 0.9825407 -0.1811212 39 39 39 255 
0.02623902 0.07649608 0.01171131 -0.04253166 0.9825407 -0.1811212 39 39 39 255 
-0.0171013 0.07048999 -0.01069308 -0.04253166 0.9825407 -0.1811212 39 39 39 255 
0.01531332 0.08053716 0.03620625 0.6071503 0.7818269 0.1418286 39 39 39 255 
0.06129155 0.0462709 0.0282713 0.6071503 0.7818269 0.1418286 39 39 39 255 
0.02623902 0.07649608 0.01171131 0.6071503 0.7818269 0.1418286 39 39 39 255 
0.05999894 -0.00494352 0.05522932 0.9493155 0.1273136 0.287387 39 39 39 255 
0.06129155 0.0462709 0.0282713 0.9493155 0.1273136 0.287387 39 39 39 255 
0.05325463 0.04782443 0.05413112 0.9493155 0.1273136 0.287387 39 39 39 255 
0.05999894 -0.00494352 0.05522932 0.7834854 -0.597562 0.1704998 39 39 39 255 
0.04128447 -0.04119827 0.01416229 0.7834854 -0.597562 0.1704998 39 39 39 255 
0.06752395 -0.002479233 0.02928662 0.7834854 -0.597562 0.1704998 39 39 39 255 
0.03159775 -0.0468514 0.03885898 0.2067979 -0.9682403 -0.1405187 39 39 39 255 
-0.002056323 -0.0472036 -0.008242199 0.2067979 -0.9682403 -0.1405187 39 39 39 255 
0.04128447 -0.04119827 0.01416229 0.2067979 -0.9682403 -0.1405187 39 39 39 255 
-0.05325464 -0.02063837 -0.003316063 -0.4428323 -0.7675072 -0.4635 39 39 39 255 
-0.002056323 -0.0472036 -0.008242199 -0.4428323 -0.7675072 -0.4635 39 39 39 255 
-0.01531394 -0.0533536 0.01460827 -0.4428323 -0.7675072 -0.4635 39 39 39 255 
-0.05999956 0.03212707 -0.004414788 -0.7849693 -0.1130252 -0.6091375 39 39 39 255 
-0.03710838 -0.01697939 -0.02480196 -0.7849693 -0.1130252 -0.6091375 39 39 39 255 
-0.05325464 -0.02063837 -0.003316063 -0.7849693 -0.1130252 -0.6091375 39 39 39 255 
-0.04334079 0.03177095 -0.0258174 -0.2863536 0.5107206 -0.8106578 39 39 39 255 
0.001724444 0.05498073 -0.02711364 -0.2863536 0.5107206 -0.8106578 39 39 39 255 
-0.01680876 0.02763336 -0.03779616 -0.2863536 0.5107206 -0.8106578 39 39 39 255 
0.02623902 0.07649608 0.01171131 0.1776002 0.8089423 -0.5604199 39 39 39 255 
0.001724444 0.05498073 -0.02711364 0.1776002 0.8089423 -0.5604199 39 39 39 255 
-0.0171013 0.07048999 -0.01069308 0.1776002 0.8089423 -0.5604199 39 39 39 255 
0.06129155 0.0462709 0.0282713 0.7003074 0.6474663 -0.3005944 39 39 39 255 
0.03233605 0.05922312 -0.01128934 0.7003074 0.6474663 -0.3005944 39 39 39 255 
0.02623902 0.07649608 0.01171131 0.7003074 0.6474663 -0.3005944 39 39 39 255 
0.06129155 0.0462709 0.0282713 0.9755812 0.1208816 -0.183382 39 39 39 255 
0.0614953 0.003443294 0.001124061 0.9755812 0.1208816 -0.183382 39 39 39 255 
0.0570941 0.03787579 0.000407232 0.9755812 0.1208816 -0.183382 39 39 39 255 
0.06752395 -0.002479233 0.02928662 0.8421645 -0.4623298 -0.2775073 39 39 39 255 
0.0429621 -0.02390409 -0.009558485 0.8421645 -0.4623298 -0.2775073 39 39 39 255 
0.0614953 0.003443294 0.001124061 0.8421645 -0.4623298 -0.2775073 39 39 39 255 
-0.002056323 -0.0472036 -0.008242199 0.3781974 -0.7605554 -0.527752 39 39 39 255 
0.0429621 -0.02390409 -0.009558485 0.3781974 -0.7605554 -0.527752 39 39 39 255 
0.04128447 -0.04119827 0.01416229 0.3781974 -0.7605554 -0.527752 39 39 39 255 
-0.03710838 -0.01697939 -0.02480196 -0.1445125 -0.5990852 -0.7875361 39 39 39 255 
0.01235049 -0.02814627 -0.0253829 -0.1445125 -0.5990852 -0.7875361 39 39 39 255 
-0.002056323 -0.0472036 -0.008242199 -0.1445125 -0.5990852 -0.7875361 39 39 39 255 
-0.03710838 -0.01697939 -0.02480196 -0.4198053 -0.07249456 -0.9047143 39 39 39 255 
-0.01680876 0.02763336 -0.03779616 -0.4198053 -0.07249456 -0.9047143 39 39 39 255 
-0.01240757 -0.00679914 -0.03707933 -0.4198053 -0.07249456 -0.9047143 39 39 39 255 
-0.01680876 0.02763336 -0.03779616 0.104186 0.2998117 -0.9482923 56 56 56 255 
0.01565893 0.03671234 -0.03135872 0.104186 0.2998117 -0.9482923 56 56 56 255 
0.005867487 0.02226378 -0.03700239 0.104186 0.2998117 -0.9482923 56 56 56 255 
0.001724444 0.05498073 -0.02711364 0.3563579 0.4606994 -0.8128747 39 39 39 255 
0.03183257 0.03895386 -0.02299784 0.3563579 0.4606994 -0.8128747 39 39 39 255 
0.01565893 0.03671234 -0.03135872 0.3563579 0.4606994 -0.8128747 39 39 39 255 
0.03233605 0.05922312 -0.01128934 0.6391824 0.3727126 -0.6727045 39 39 39 255 
0.0449134 0.02767498 -0.01681811 0.6391824 0.3727126 -0.6727045 39 39 39 255 
0.03183257 0.03895386 -0.02299784 0.6391824 0.3727126 -0.6727045 39 39 39 255 
0.0614953 0.003443294 0.001124061 0.7879931 0.0880364 -0.6093576 39 39 39 255 
0.0449134 0.02767498 -0.01681811 0.7879931 0.0880364 -0.6093576 39 39 39 255 
0.0570941 0.03787579 0.000407232 0.7879931 0.0880364 -0.6093576 39 39 39 255 
0.0429621 -0.02390409 -0.009558485 0.7162306 -0.2277042 -0.6596701 39 39 39 255 
0.04723897 0.009482593 -0.01643928 0.7162306 -0.2277042 -0.6596701 39 39 39 255 
0.0614953 0.003443294 0.001124061 0.7162306 -0.2277042 -0.6596701 39 39 39 255 
0.01235049 -0.02814627 -0.0253829 0.4649048 -0.3902187 -0.7947282 39 39 39 255 
0.03744677 -0.004966505 -0.02208337 0.4649048 -0.3902187 -0.7947282 39 39 39 255 
0.0429621 -0.02390409 -0.009558485 0.4649048 -0.3902187 -0.7947282 39 39 39 255 
-0.01240757 -0.00679914 -0.03707933 0.1806578 -0.3031433 -0.9356639 39 39 39 255 
0.02127388 -0.007207512 -0.03044384 0.1806578 -0.3031433 -0.9356639 39 39 39 255 
0.01235049 -0.02814627 -0.0253829 0.1806578 -0.3031433 -0.9356639 39 39 39 255 
-0.01240757 -0.00679914 -0.03707933 0.0310003 -0.01684774 -0.9993774 39 39 39 255 
0.005867487 0.02226378 -0.03700239 0.0310003 -0.01684774 -0.9993774 39 39 39 255 
0.008193055 0.004071385 -0.03662357 0.0310003 -0.01684774 -0.9993774 39 39 39 255 
-0.03994226 0.03429969 0.07478489 -0.4545195 -0.03957222 0.8898574 39 39 39 255 
-0.05081148 0.01826158 0.06851999 -0.4545195 -0.03957222 0.8898574 39 39 39 255 
-0.02785023 0.01116819 0.0799327 -0.4545195 -0.03957222 0.8898574 39 39 39 255 
-0.02198982 0.03678795 0.08406522 -0.4545195 -0.03957222 0.8898574 39 39 39 255 
-0.007470382 0.0242682 0.09092479 -0.4545195 -0.03957222 0.8898574 39 39 39 255 
-0.004888976 0.004075025 0.09134528 -0.4545195 -0.03957222 0.8898574 39 39 39 255 
-0.01575819 -0.0119629 0.08508027 -0.4545195 -0.03957222 0.8898574 39 39 39 255 
-0.03371063 -0.01445115 0.07579993 -0.4545195 -0.03957222 0.8898574 39 39 39 255 
-0.04823007 -0.001931586 0.06894049 -0.4545195 -0.03957222 0.8898574 39 39 39 255 
0.05478267 0.005762381 -0.11417 0.7393389 -0.05271918 -0.6712666 255 255 255 255 
0.06175946 0.005450366 -0.1064612 0.7393389 -0.05271918 -0.6712666 255 255 255 255 
0.05793864 0.0003513247 -0.110269 0.7393389 -0.05271918 -0.6712666 255 255 255 255 
0.005867487 0.02226378 -0.03700239 -0.7586148 0.6068028 -0.2372636 39 39 39 255 
0.02660011 0.04063187 -0.05631533 -0.7586148 0.6068028 -0.2372636 39 39 39 255 
0.01547441 0.0242154 -0.0627282 -0.7586148 0.6068028 -0.2372636 39 39 39 255 
0.03183257 0.03895386 -0.02299784 -0.175846 0.9813981 0.07704566 39 39 39 255 
0.02660011 0.04063187 -0.05631533 -0.175846 0.9813981 0.07704566 39 39 39 255 
0.01565893 0.03671234 -0.03135872 -0.175846 0.9813981 0.07704566 39 39 39 255 
0.0449134 0.02767498 -0.01681811 0.480726 0.7785571 0.4034247 39 39 39 255 
0.04497708 0.04317937 -0.04681557 0.480726 0.7785571 0.4034247 39 39 39 255 
0.03183257 0.03895386 -0.02299784 0.480726 0.7785571 0.4034247 39 39 39 255 
0.0449134 0.02767498 -0.01681811 0.8264974 0.1171177 0.5506229 39 39 39 255 
0.06248152 0.00969452 -0.03936378 0.8264974 0.1171177 0.5506229 39 39 39 255 
0.05983928 0.03036432 -0.03979417 0.8264974 0.1171177 0.5506229 39 39 39 255 
0.04723897 0.009482593 -0.01643928 0.658918 -0.6154964 0.4324249 39 39 39 255 
0.05135508 -0.006722673 -0.04577696 0.658918 -0.6154964 0.4324249 39 39 39 255 
0.06248152 0.00969452 -0.03936378 0.658918 -0.6154964 0.4324249 39 39 39 255 
0.02127388 -0.007207512 -0.03044384 0.07615314 -0.9900788 0.118088 39 39 39 255 
0.05135508 -0.006722673 -0.04577696 0.07615314 -0.9900788 0.118088 39 39 39 255 
0.03744677 -0.004966505 -0.02208337 0.07615314 -0.9900788 0.118088 39 39 39 255 
0.008193055 0.004071385 -0.03662357 -0.5804313 -0.7872377 -0.208222 39 39 39 255 
0.03297886 -0.009269445 -0.05527642 -0.5804313 -0.7872377 -0.208222 39 39 39 255 
0.02127388 -0.007207512 -0.03044384 -0.5804313 -0.7872377 -0.208222 39 39 39 255 
0.008193055 0.004071385 -0.03662357 -0.9262027 -0.1257984 -0.3554202 39 39 39 255 
0.01547441 0.0242154 -0.0627282 -0.9262027 -0.1257984 -0.3554202 39 39 39 255 
0.01811667 0.003545608 -0.06229781 -0.9262027 -0.1257984 -0.3554202 39 39 39 255 
0.01547441 0.0242154 -0.0627282 0.4545195 0.03957222 -0.8898574 39 39 39 255 
0.02660011 0.04063187 -0.05631533 0.4545195 0.03957222 -0.8898574 39 39 39 255 
0.02847297 0.02020049 -0.05626735 0.4545195 0.03957222 -0.8898574 39 39 39 255 
0.04165889 0.02867623 -0.04915533 0.4545195 0.03957222 -0.8898574 39 39 39 255 
0.04497708 0.04317937 -0.04681557 0.4545195 0.03957222 -0.8898574 39 39 39 255 
0.05983928 0.03036432 -0.03979417 0.4545195 0.03957222 -0.8898574 39 39 39 255 
0.04948252 0.01371018 -0.04582477 0.4545195 0.03957222 -0.8898574 39 39 39 255 
0.06248152 0.00969452 -0.03936378 0.4545195 0.03957222 -0.8898574 39 39 39 255 
0.05135508 -0.006722673 -0.04577696 0.4545195 0.03957222 -0.8898574 39 39 39 255 
0.03629661 0.005234448 -0.0529368 0.4545195 0.03957222 -0.8898574 39 39 39 255 
0.03297886 -0.009269445 -0.05527642 0.4545195 0.03957222 -0.8898574 39 39 39 255 
0.01811667 0.003545608 -0.06229781 0.4545195 0.03957222 -0.8898574 39 39 39 255 
0.04165889 0.02867623 -0.04915533 -0.3931686 0.8674595 -0.3048483 255 255 255 255 
0.0377553 0.02067281 -0.06689529 -0.3931686 0.8674595 -0.3048483 255 255 255 255 
0.02847297 0.02020049 -0.05626735 -0.3931686 0.8674595 -0.3048483 255 255 255 255 
0.04165889 0.02867623 -0.04915533 0.6327695 0.7351449 0.2432382 255 255 255 255 
0.05376498 0.02140922 -0.05868514 0.6327695 0.7351449 0.2432382 255 255 255 255 
0.04527002 0.03003009 -0.06264088 0.6327695 0.7351449 0.2432382 255 255 255 255 
0.04948252 0.01371018 -0.04582477 0.7964633 -0.5975666 -0.09252254 255 255 255 255 
0.04625025 0.01205193 -0.06293957 0.7964633 -0.5975666 -0.09252254 255 255 255 255 
0.05376498 0.02140922 -0.05868514 0.7964633 -0.5975666 -0.09252254 255 255 255 255 
0.03629661 0.005234448 -0.0529368 -0.2976982 -0.6246245 -0.7219557 255 255 255 255 
0.0377553 0.02067281 -0.06689529 -0.2976982 -0.6246245 -0.7219557 255 255 255 255 
0.04625025 0.01205193 -0.06293957 -0.2976982 -0.6246245 -0.7219557 255 255 255 255 
0.0377553 0.02067281 -0.06689529 -0.9812938 0.189628 0.03322315 255 255 255 255 
0.03846055 0.02801727 -0.08798491 -0.9812938 0.189628 0.03322315 255 255 255 255 
0.0363065 0.01690437 -0.08817813 -0.9812938 0.189628 0.03322315 255 255 255 255 
0.04527002 0.03003009 -0.06264088 0.2437539 0.959432 -0.1416839 255 255 255 255 
0.04896528 0.02588366 -0.08436053 0.2437539 0.959432 -0.1416839 255 255 255 255 
0.03846055 0.02801727 -0.08798491 0.2437539 0.959432 -0.1416839 255 255 255 255 
0.04625025 0.01205193 -0.06293957 0.8072742 -0.5371405 -0.2445168 255 255 255 255 
0.04896528 0.02588366 -0.08436053 0.8072742 -0.5371405 -0.2445168 255 255 255 255 
0.05376498 0.02140922 -0.05868514 0.8072742 -0.5371405 -0.2445168 255 255 255 255 
0.0377553 0.02067281 -0.06689529 -0.6826816 -0.7225883 -0.108683 255 255 255 255 
0.04681336 0.01477138 -0.08455601 -0.6826816 -0.7225883 -0.108683 255 255 255 255 
0.04625025 0.01205193 -0.06293957 -0.6826816 -0.7225883 -0.108683 255 255 255 255 
0.0363065 0.01690437 -0.08817813 -0.9109397 -0.4109893 -0.03573095 255 255 255 255 
0.03996775 0.01032074 -0.1057926 -0.9109397 -0.4109893 -0.03573095 255 255 255 255 
0.04351617 0.002230324 -0.1031993 -0.9109397 -0.4109893 -0.03573095 255 255 255 255 
0.03846055 0.02801727 -0.08798491 -0.1294494 0.6978469 -0.704452 255 255 255 255 
0.04765429 0.01454981 -0.1030157 -0.1294494 0.6978469 -0.704452 255 255 255 255 
0.03996775 0.01032074 -0.1057926 -0.1294494 0.6978469 -0.704452 255 255 255 255 
0.04681336 0.01477138 -0.08455601 0.9805239 -0.190704 0.04695671 255 255 255 255 
0.04765429 0.01454981 -0.1030157 0.9805239 -0.190704 0.04695671 255 255 255 255 
0.04896528 0.02588366 -0.08436053 0.9805239 -0.190704 0.04695671 255 255 255 255 
0.0363065 0.01690437 -0.08817813 -0.3065279 -0.8754739 0.3736124 255 255 255 255 
0.05120563 0.006459177 -0.1004299 -0.3065279 -0.8754739 0.3736124 255 255 255 255 
0.04681336 0.01477138 -0.08455601 -0.3065279 -0.8754739 0.3736124 255 255 255 255 
0.04351617 0.002230324 -0.1031993 -0.3930308 -0.6774683 -0.6217424 255 255 255 255 
0.05478267 0.005762381 -0.11417 -0.3930308 -0.6774683 -0.6217424 255 255 255 255 
0.05793864 0.0003513247 -0.110269 -0.3930308 -0.6774683 -0.6217424 255 255 255 255 
0.04765429 0.01454981 -0.1030157 -0.1563909 0.7248186 -0.6709545 255 255 255 255 
0.05478267 0.005762381 -0.11417 -0.1563909 0.7248186 -0.6709545 255 255 255 255 
0.03996775 0.01032074 -0.1057926 -0.1563909 0.7248186 -0.6709545 255 255 255 255 
0.05120563 0.006459177 -0.1004299 0.5955644 0.4696975 0.6516804 255 255 255 255 
0.0586027 0.01086091 -0.1103626 0.5955644 0.4696975 0.6516804 255 255 255 255 
0.04765429 0.01454981 -0.1030157 0.5955644 0.4696975 0.6516804 255 255 255 255 
0.05120563 0.006459177 -0.1004299 0.2999882 -0.7048324 0.6428208 255 255 255 255 
0.05793864 0.0003513247 -0.110269 0.2999882 -0.7048324 0.6428208 255 255 255 255 
0.06175946 0.005450366 -0.1064612 0.2999882 -0.7048324 0.6428208 255 255 255 255 
-0.05081148 0.01826158 0.06851999 -0.7513719 0.2748753 0.5999032 39 39 39 255 
-0.03994226 0.03429969 0.07478489 -0.7513719 0.2748753 0.5999032 39 39 39 255 
-0.04468563 0.05438723 0.05963979 -0.7513719 0.2748753 0.5999032 39 39 39 255 
-0.02198982 0.03678795 0.08406522 -0.4566674 0.4642969 0.7588698 39 39 39 255 
-0.01151467 0.05898639 0.07678728 -0.4566674 0.4642969 0.7588698 39 39 39 255 
-0.04468563 0.05438723 0.05963979 -0.4566674 0.4642969 0.7588698 39 39 39 255 
-0.02198982 0.03678795 0.08406522 -0.1245765 0.3617374 0.9239193 39 39 39 255 
-0.007470382 0.0242682 0.09092479 -0.1245765 0.3617374 0.9239193 39 39 39 255 
0.01531241 0.03585248 0.08946113 -0.1245765 0.3617374 0.9239193 39 39 39 255 
-0.004888976 0.004075025 0.09134528 0.0502666 0.02723847 0.9983643 39 39 39 255 
0.02008353 -0.001458882 0.09023893 0.0502666 0.02723847 0.9983643 39 39 39 255 
0.01531241 0.03585248 0.08946113 0.0502666 0.02723847 0.9983643 39 39 39 255 
-0.004888976 0.004075025 0.09134528 -0.03449233 -0.3432732 0.9386021 39 39 39 255 
-0.01575819 -0.0119629 0.08508027 -0.03449233 -0.3432732 0.9386021 39 39 39 255 
0 -0.03109345 0.07866285 -0.03449233 -0.3432732 0.9386021 39 39 39 255 
-0.03371063 -0.01445115 0.07579993 -0.3292009 -0.532711 0.7796447 39 39 39 255 
-0.03317188 -0.03569069 0.06151486 -0.3292009 -0.532711 0.7796447 39 39 39 255 
0 -0.03109345 0.07866285 -0.3292009 -0.532711 0.7796447 39 39 39 255 
-0.03371063 -0.01445115 0.07579993 -0.6612462 -0.4301292 0.6146074 39 39 39 255 
-0.04823007 -0.001931586 0.06894049 -0.6612462 -0.4301292 0.6146074 39 39 39 255 
-0.06000047 -0.0125578 0.04884021 -0.6612462 -0.4301292 0.6146074 39 39 39 255 
-0.05081148 0.01826158 0.06851999 -0.8361082 -0.09563131 0.5401645 39 39 39 255 
-0.06477006 0.0247546 0.04806324 -0.8361082 -0.09563131 0.5401645 39 39 39 255 
-0.06000047 -0.0125578 0.04884021 -0.8361082 -0.09563131 0.5401645 39 39 39 255 
-0.04468563 0.05438723 0.05963979 -0.8455305 0.5023826 0.1808034 39 39 39 255 
-0.04128446 0.06838454 0.03665264 -0.8455305 0.5023826 0.1808034 39 39 39 255 
-0.06752395 0.0296655 0.02152833 -0.8455305 0.5023826 0.1808034 39 39 39 255 
-0.04468563 0.05438723 0.05963979 -0.3466477 0.8231106 0.4498048 39 39 39 255 
-0.01151467 0.05898639 0.07678728 -0.3466477 0.8231106 0.4498048 39 39 39 255 
0.002055859 0.07439043 0.05905715 -0.3466477 0.8231106 0.4498048 39 39 39 255 
-0.01151467 0.05898639 0.07678728 0.2155049 0.6494246 0.7292498 39 39 39 255 
0.01531241 0.03585248 0.08946113 0.2155049 0.6494246 0.7292498 39 39 39 255 
0.03710839 0.04416545 0.07561703 0.2155049 0.6494246 0.7292498 39 39 39 255 
0.02008353 -0.001458882 0.09023893 0.5115281 0.08320925 0.8552282 39 39 39 255 
0.04334078 -0.004584885 0.07663247 0.5115281 0.08320925 0.8552282 39 39 39 255 
0.03710839 0.04416545 0.07561703 0.5115281 0.08320925 0.8552282 39 39 39 255 
0 -0.03109345 0.07866285 0.3680399 -0.5439758 0.7540802 39 39 39 255 
0.0171013 -0.04330372 0.06150803 0.3680399 -0.5439758 0.7540802 39 39 39 255 
0.04334078 -0.004584885 0.07663247 0.3680399 -0.5439758 0.7540802 39 39 39 255 
0 -0.03109345 0.07866285 -0.1308515 -0.8646959 0.4849525 39 39 39 255 
-0.03317188 -0.03569069 0.06151486 -0.1308515 -0.8646959 0.4849525 39 39 39 255 
-0.02623948 -0.04930906 0.03910352 -0.1308515 -0.8646959 0.4849525 39 39 39 255 
-0.03317188 -0.03569069 0.06151486 -0.6929655 -0.6910495 0.2055467 39 39 39 255 
-0.06000047 -0.0125578 0.04884021 -0.6929655 -0.6910495 0.2055467 39 39 39 255 
-0.06129155 -0.01908484 0.02254377 -0.6929655 -0.6910495 0.2055467 39 39 39 255 
-0.06477006 0.0247546 0.04806324 -0.9889908 -0.1247788 0.0795459 39 39 39 255 
-0.06752395 0.0296655 0.02152833 -0.9889908 -0.1247788 0.0795459 39 39 39 255 
-0.06129155 -0.01908484 0.02254377 -0.9889908 -0.1247788 0.0795459 39 39 39 255 
-0.06752395 0.0296655 0.02152833 -0.783479 0.5975651 -0.1705194 39 39 39 255 
-0.04128446 0.06838454 0.03665264 -0.783479 0.5975651 -0.1705194 39 39 39 255 
-0.03159774 0.07403746 0.01195609 -0.783479 0.5975651 -0.1705194 39 39 39 255 
0.002055859 0.07439043 0.05905715 -0.2067745 0.9682505 0.1404829 39 39 39 255 
0.01531332 0.08053716 0.03620625 -0.2067745 0.9682505 0.1404829 39 39 39 255 
-0.03159774 0.07403746 0.01195609 -0.2067745 0.9682505 0.1404829 39 39 39 255 
0.03710839 0.04416545 0.07561703 0.4428059 0.7675399 0.4634711 39 39 39 255 
0.05325463 0.04782443 0.05413112 0.4428059 0.7675399 0.4634711 39 39 39 255 
0.01531332 0.08053716 0.03620625 0.4428059 0.7675399 0.4634711 39 39 39 255 
0.04334078 -0.004584885 0.07663247 0.7850125 0.1130098 0.6090848 39 39 39 255 
0.05999894 -0.00494352 0.05522932 0.7850125 0.1130098 0.6090848 39 39 39 255 
0.05325463 0.04782443 0.05413112 0.7850125 0.1130098 0.6090848 39 39 39 255 
0.0171013 -0.04330372 0.06150803 0.6191896 -0.6118764 0.4921501 39 39 39 255 
0.03159775 -0.0468514 0.03885898 0.6191896 -0.6118764 0.4921501 39 39 39 255 
0.05999894 -0.00494352 0.05522932 0.6191896 -0.6118764 0.4921501 39 39 39 255 
-0.02623948 -0.04930906 0.03910352 0.04251615 -0.9825263 0.1812028 39 39 39 255 
-0.01531394 -0.0533536 0.01460827 0.04251615 -0.9825263 0.1812028 39 39 39 255 
0.03159775 -0.0468514 0.03885898 0.04251615 -0.9825263 0.1812028 39 39 39 255 
-0.02623948 -0.04930906 0.03910352 -0.6071784 -0.7818221 -0.1417347 39 39 39 255 
-0.06129155 -0.01908484 0.02254377 -0.6071784 -0.7818221 -0.1417347 39 39 39 255 
-0.05325464 -0.02063837 -0.003316063 -0.6071784 -0.7818221 -0.1417347 39 39 39 255 
-0.06129155 -0.01908484 0.02254377 -0.9493029 -0.1273483 -0.2874136 39 39 39 255 
-0.06752395 0.0296655 0.02152833 -0.9493029 -0.1273483 -0.2874136 39 39 39 255 
-0.05999956 0.03212707 -0.004414788 -0.9493029 -0.1273483 -0.2874136 39 39 39 255 
-0.03159774 0.07403746 0.01195609 -0.6191959 0.611868 -0.4921526 39 39 39 255 
-0.0171013 0.07048999 -0.01069308 -0.6191959 0.611868 -0.4921526 39 39 39 255 
-0.04334079 0.03177095 -0.0258174 -0.6191959 0.611868 -0.4921526 39 39 39 255 
-0.03159774 0.07403746 0.01195609 -0.0425316 0.9825498 -0.1810716 39 39 39 255 
0.01531332 0.08053716 0.03620625 -0.0425316 0.9825498 -0.1810716 39 39 39 255 
0.02623902 0.07649608 0.01171131 -0.0425316 0.9825498 -0.1810716 39 39 39 255 
0.01531332 0.08053716 0.03620625 0.6071475 0.7818481 0.1417235 39 39 39 255 
0.05325463 0.04782443 0.05413112 0.6071475 0.7818481 0.1417235 39 39 39 255 
0.06129155 0.0462709 0.0282713 0.6071475 0.7818481 0.1417235 39 39 39 255 
0.05999894 -0.00494352 0.05522932 0.9492917 0.1273475 0.2874506 39 39 39 255 
0.06752395 -0.002479233 0.02928662 0.9492917 0.1273475 0.2874506 39 39 39 255 
0.06129155 0.0462709 0.0282713 0.9492917 0.1273475 0.2874506 39 39 39 255 
0.05999894 -0.00494352 0.05522932 0.7834734 -0.5975733 0.1705158 39 39 39 255 
0.03159775 -0.0468514 0.03885898 0.7834734 -0.5975733 0.1705158 39 39 39 255 
0.04128447 -0.04119827 0.01416229 0.7834734 -0.5975733 0.1705158 39 39 39 255 
0.03159775 -0.0468514 0.03885898 0.2068708 -0.9682171 -0.1405704 39 39 39 255 
-0.01531394 -0.0533536 0.01460827 0.2068708 -0.9682171 -0.1405704 39 39 39 255 
-0.002056323 -0.0472036 -0.008242199 0.2068708 -0.9682171 -0.1405704 39 39 39 255 
-0.05325464 -0.02063837 -0.003316063 -0.4428341 -0.7675136 -0.4634877 39 39 39 255 
-0.03710838 -0.01697939 -0.02480196 -0.4428341 -0.7675136 -0.4634877 39 39 39 255 
-0.002056323 -0.0472036 -0.008242199 -0.4428341 -0.7675136 -0.4634877 39 39 39 255 
-0.05999956 0.03212707 -0.004414788 -0.7849859 -0.1130422 -0.609113 39 39 39 255 
-0.04334079 0.03177095 -0.0258174 -0.7849859 -0.1130422 -0.609113 39 39 39 255 
-0.03710838 -0.01697939 -0.02480196 -0.7849859 -0.1130422 -0.609113 39 39 39 255 
-0.04334079 0.03177095 -0.0258174 -0.2863531 0.5107188 -0.8106591 39 39 39 255 
-0.0171013 0.07048999 -0.01069308 -0.2863531 0.5107188 -0.8106591 39 39 39 255 
0.001724444 0.05498073 -0.02711364 -0.2863531 0.5107188 -0.8106591 39 39 39 255 
0.02623902 0.07649608 0.01171131 0.177598 0.8089431 -0.5604196 39 39 39 255 
0.03233605 0.05922312 -0.01128934 0.177598 0.8089431 -0.5604196 39 39 39 255 
0.001724444 0.05498073 -0.02711364 0.177598 0.8089431 -0.5604196 39 39 39 255 
0.06129155 0.0462709 0.0282713 0.700293 0.6474909 -0.300575 39 39 39 255 
0.0570941 0.03787579 0.000407232 0.700293 0.6474909 -0.300575 39 39 39 255 
0.03233605 0.05922312 -0.01128934 0.700293 0.6474909 -0.300575 39 39 39 255 
0.06129155 0.0462709 0.0282713 0.9755735 0.1208999 -0.183411 39 39 39 255 
0.06752395 -0.002479233 0.02928662 0.9755735 0.1208999 -0.183411 39 39 39 255 
0.0614953 0.003443294 0.001124061 0.9755735 0.1208999 -0.183411 39 39 39 255 
0.06752395 -0.002479233 0.02928662 0.8421652 -0.4623277 -0.2775084 39 39 39 255 
0.04128447 -0.04119827 0.01416229 0.8421652 -0.4623277 -0.2775084 39 39 39 255 
0.0429621 -0.02390409 -0.009558485 0.8421652 -0.4623277 -0.2775084 39 39 39 255 
-0.002056323 -0.0472036 -0.008242199 0.3782054 -0.7605687 -0.5277271 39 39 39 255 
0.01235049 -0.02814627 -0.0253829 0.3782054 -0.7605687 -0.5277271 39 39 39 255 
0.0429621 -0.02390409 -0.009558485 0.3782054 -0.7605687 -0.5277271 39 39 39 255 
-0.03710838 -0.01697939 -0.02480196 -0.1445166 -0.5991037 -0.7875213 39 39 39 255 
-0.01240757 -0.00679914 -0.03707933 -0.1445166 -0.5991037 -0.7875213 39 39 39 255 
0.01235049 -0.02814627 -0.0253829 -0.1445166 -0.5991037 -0.7875213 39 39 39 255 
-0.03710838 -0.01697939 -0.02480196 -0.419777 -0.07251003 -0.9047263 39 39 39 255 
-0.04334079 0.03177095 -0.0258174 -0.419777 -0.07251003 -0.9047263 39 39 39 255 
-0.01680876 0.02763336 -0.03779616 -0.419777 -0.07251003 -0.9047263 39 39 39 255 
-0.01680876 0.02763336 -0.03779616 0.1041835 0.2998179 -0.9482906 39 39 39 255 
0.001724444 0.05498073 -0.02711364 0.1041835 0.2998179 -0.9482906 39 39 39 255 
0.01565893 0.03671234 -0.03135872 0.1041835 0.2998179 -0.9482906 39 39 39 255 
0.001724444 0.05498073 -0.02711364 0.35636 0.4607049 -0.8128706 39 39 39 255 
0.03233605 0.05922312 -0.01128934 0.35636 0.4607049 -0.8128706 39 39 39 255 
0.03183257 0.03895386 -0.02299784 0.35636 0.4607049 -0.8128706 39 39 39 255 
0.03233605 0.05922312 -0.01128934 0.639177 0.3727119 -0.6727099 39 39 39 255 
0.0570941 0.03787579 0.000407232 0.639177 0.3727119 -0.6727099 39 39 39 255 
0.0449134 0.02767498 -0.01681811 0.639177 0.3727119 -0.6727099 39 39 39 255 
0.0614953 0.003443294 0.001124061 0.7879958 0.08804209 -0.6093532 39 39 39 255 
0.04723897 0.009482593 -0.01643928 0.7879958 0.08804209 -0.6093532 39 39 39 255 
0.0449134 0.02767498 -0.01681811 0.7879958 0.08804209 -0.6093532 39 39 39 255 
0.0429621 -0.02390409 -0.009558485 0.716225 -0.2277046 -0.659676 39 39 39 255 
0.03744677 -0.004966505 -0.02208337 0.716225 -0.2277046 -0.659676 39 39 39 255 
0.04723897 0.009482593 -0.01643928 0.716225 -0.2277046 -0.659676 39 39 39 255 
0.01235049 -0.02814627 -0.0253829 0.464902 -0.3902152 -0.7947316 39 39 39 255 
0.02127388 -0.007207512 -0.03044384 0.464902 -0.3902152 -0.7947316 39 39 39 255 
0.03744677 -0.004966505 -0.02208337 0.464902 -0.3902152 -0.7947316 39 39 39 255 
-0.01240757 -0.00679914 -0.03707933 0.180659 -0.3031351 -0.9356663 39 39 39 255 
0.008193055 0.004071385 -0.03662357 0.180659 -0.3031351 -0.9356663 39 39 39 255 
0.02127388 -0.007207512 -0.03044384 0.180659 -0.3031351 -0.9356663 39 39 39 255 
-0.01240757 -0.00679914 -0.03707933 0.03099352 -0.01684324 -0.9993777 39 39 39 255 
-0.01680876 0.02763336 -0.03779616 0.03099352 -0.01684324 -0.9993777 39 39 39 255 
0.005867487 0.02226378 -0.03700239 0.03099352 -0.01684324 -0.9993777 39 39 39 255 
0.05478267 0.005762381 -0.11417 0.7393416 -0.05266971 -0.6712674 255 255 255 255 
0.0586027 0.01086091 -0.1103626 0.7393416 -0.05266971 -0.6712674 255 255 255 255 
0.06175946 0.005450366 -0.1064612 0.7393416 -0.05266971 -0.6712674 255 255 255 255 
0.005867487 0.02226378 -0.03700239 -0.7586201 0.6067887 -0.2372827 39 39 39 255 
0.01565893 0.03671234 -0.03135872 -0.7586201 0.6067887 -0.2372827 39 39 39 255 
0.02660011 0.04063187 -0.05631533 -0.7586201 0.6067887 -0.2372827 39 39 39 255 
0.03183257 0.03895386 -0.02299784 -0.1758672 0.981394 0.0770492 39 39 39 255 
0.04497708 0.04317937 -0.04681557 -0.1758672 0.981394 0.0770492 39 39 39 255 
0.02660011 0.04063187 -0.05631533 -0.1758672 0.981394 0.0770492 39 39 39 255 
0.0449134 0.02767498 -0.01681811 0.4807253 0.7785577 0.4034244 39 39 39 255 
0.05983928 0.03036432 -0.03979417 0.4807253 0.7785577 0.4034244 39 39 39 255 
0.04497708 0.04317937 -0.04681557 0.4807253 0.7785577 0.4034244 39 39 39 255 
0.0449134 0.02767498 -0.01681811 0.8264973 0.1171186 0.5506229 39 39 39 255 
0.04723897 0.009482593 -0.01643928 0.8264973 0.1171186 0.5506229 39 39 39 255 
0.06248152 0.00969452 -0.03936378 0.8264973 0.1171186 0.5506229 39 39 39 255 
0.04723897 0.009482593 -0.01643928 0.6589344 -0.6154829 0.4324193 39 39 39 255 
0.03744677 -0.004966505 -0.02208337 0.6589344 -0.6154829 0.4324193 39 39 39 255 
0.05135508 -0.006722673 -0.04577696 0.6589344 -0.6154829 0.4324193 39 39 39 255 
0.02127388 -0.007207512 -0.03044384 0.07616352 -0.9900753 0.1181104 39 39 39 255 
0.03297886 -0.009269445 -0.05527642 0.07616352 -0.9900753 0.1181104 39 39 39 255 
0.05135508 -0.006722673 -0.04577696 0.07616352 -0.9900753 0.1181104 39 39 39 255 
0.008193055 0.004071385 -0.03662357 -0.5804305 -0.7872383 -0.2082219 39 39 39 255 
0.01811667 0.003545608 -0.06229781 -0.5804305 -0.7872383 -0.2082219 39 39 39 255 
0.03297886 -0.009269445 -0.05527642 -0.5804305 -0.7872383 -0.2082219 39 39 39 255 
0.008193055 0.004071385 -0.03662357 -0.9262025 -0.1257994 -0.3554202 56 56 56 255 
0.005867487 0.02226378 -0.03700239 -0.9262025 -0.1257994 -0.3554202 56 56 56 255 
0.01547441 0.0242154 -0.0627282 -0.9262025 -0.1257994 -0.3554202 56 56 56 255 
0.04165889 0.02867623 -0.04915533 -0.7424052 0.6566397 -0.1328866 255 255 255 255 
0.04527002 0.03003009 -0.06264088 -0.7424052 0.6566397 -0.1328866 255 255 255 255 
0.0377553 0.02067281 -0.06689529 -0.7424052 0.6566397 -0.1328866 255 255 255 255 
0.04165889 0.02867623 -0.04915533 0.701939 0.483358 0.5231125 255 255 255 255 
0.04948252 0.01371018 -0.04582477 0.701939 0.483358 0.5231125 255 255 255 255 
0.05376498 0.02140922 -0.05868514 0.701939 0.483358 0.5231125 255 255 255 255 
0.04948252 0.01371018 -0.04582477 0.5492476 -0.8353487 -0.02279648 255 255 255 255 
0.03629661 0.005234448 -0.0529368 0.5492476 -0.8353487 -0.02279648 255 255 255 255 
0.04625025 0.01205193 -0.06293957 0.5492476 -0.8353487 -0.02279648 255 255 255 255 
0.03629661 0.005234448 -0.0529368 -0.653072 -0.4730102 -0.5914037 255 255 255 255 
0.02847297 0.02020049 -0.05626735 -0.653072 -0.4730102 -0.5914037 255 255 255 255 
0.0377553 0.02067281 -0.06689529 -0.653072 -0.4730102 -0.5914037 255 255 255 255 
0.0377553 0.02067281 -0.06689529 -0.8047144 0.5684817 0.1710654 255 255 255 255 
0.04527002 0.03003009 -0.06264088 -0.8047144 0.5684817 0.1710654 255 255 255 255 
0.03846055 0.02801727 -0.08798491 -0.8047144 0.5684817 0.1710654 255 255 255 255 
0.04527002 0.03003009 -0.06264088 0.714942 0.699084 -0.01181845 255 255 255 255 
0.05376498 0.02140922 -0.05868514 0.714942 0.699084 -0.01181845 255 255 255 255 
0.04896528 0.02588366 -0.08436053 0.714942 0.699084 -0.01181845 255 255 255 255 
0.04625025 0.01205193 -0.06293957 0.9817543 -0.1901468 0.001655225 255 255 255 255 
0.04681336 0.01477138 -0.08455601 0.9817543 -0.1901468 0.001655225 255 255 255 255 
0.04896528 0.02588366 -0.08436053 0.9817543 -0.1901468 0.001655225 255 255 255 255 
0.0377553 0.02067281 -0.06689529 -0.2564968 -0.9485919 0.1854257 255 255 255 255 
0.0363065 0.01690437 -0.08817813 -0.2564968 -0.9485919 0.1854257 255 255 255 255 
0.04681336 0.01477138 -0.08455601 -0.2564968 -0.9485919 0.1854257 255 255 255 255 
0.0363065 0.01690437 -0.08817813 -0.945294 0.1878618 -0.2666971 255 255 255 255 
0.03846055 0.02801727 -0.08798491 -0.945294 0.1878618 -0.2666971 255 255 255 255 
0.03996775 0.01032074 -0.1057926 -0.945294 0.1878618 -0.2666971 255 255 255 255 
0.03846055 0.02801727 -0.08798491 0.3359729 0.7942916 -0.5061847 255 255 255 255 
0.04896528 0.02588366 -0.08436053 0.3359729 0.7942916 -0.5061847 255 255 255 255 
0.04765429 0.01454981 -0.1030157 0.3359729 0.7942916 -0.5061847 255 255 255 255 
0.04681336 0.01477138 -0.08455601 0.9107078 0.411431 0.03655002 255 255 255 255 
0.05120563 0.006459177 -0.1004299 0.9107078 0.411431 0.03655002 255 255 255 255 
0.04765429 0.01454981 -0.1030157 0.9107078 0.411431 0.03655002 255 255 255 255 
0.0363065 0.01690437 -0.08817813 0.1152666 -0.6823391 0.7218913 255 255 255 255 
0.04351617 0.002230324 -0.1031993 0.1152666 -0.6823391 0.7218913 255 255 255 255 
0.05120563 0.006459177 -0.1004299 0.1152666 -0.6823391 0.7218913 255 255 255 255 
0.04351617 0.002230324 -0.1031993 -0.5399716 -0.4622877 -0.7033639 255 255 255 255 
0.03996775 0.01032074 -0.1057926 -0.5399716 -0.4622877 -0.7033639 255 255 255 255 
0.05478267 0.005762381 -0.11417 -0.5399716 -0.4622877 -0.7033639 255 255 255 255 
0.04765429 0.01454981 -0.1030157 -0.2306889 0.687238 -0.6888298 255 255 255 255 
0.0586027 0.01086091 -0.1103626 -0.2306889 0.687238 -0.6888298 255 255 255 255 
0.05478267 0.005762381 -0.11417 -0.2306889 0.687238 -0.6888298 255 255 255 255 
0.05120563 0.006459177 -0.1004299 0.4122058 0.6787477 0.6077729 255 255 255 255 
0.06175946 0.005450366 -0.1064612 0.4122058 0.6787477 0.6077729 255 255 255 255 
0.0586027 0.01086091 -0.1103626 0.4122058 0.6787477 0.6077729 255 255 255 255 
0.05120563 0.006459177 -0.1004299 0.2003315 -0.7650561 0.6120102 255 255 255 255 
0.04351617 0.002230324 -0.1031993 0.2003315 -0.7650561 0.6120102 255 255 255 255 
0.05793864 0.0003513247 -0.110269 0.2003315 -0.7650561 0.6120102 255 255 255 255 
3 0 1 2 
3 3 4 5 
3 6 7 8 
3 9 10 11 
3 12 13 14 
3 15 16 17 
3 18 19 20 
3 21 22 23 
3 24 25 26 
3 27 28 29 
3 30 31 32 
3 33 34 35 
3 36 37 38 
3 39 40 41 
3 42 43 44 
3 45 46 47 
3 48 49 50 
3 51 52 53 
3 54 55 56 
3 57 58 59 
3 60 61 62 
3 63 64 65 
3 66 67 68 
3 69 70 71 
3 72 73 74 
3 75 76 77 
3 78 79 80 
3 81 82 83 
3 84 85 86 
3 87 88 89 
3 90 91 92 
3 93 94 95 
3 96 97 98 
3 99 100 101 
3 102 103 104 
3 105 106 107 
3 108 109 110 
3 111 112 113 
3 114 115 116 
3 117 118 119 
3 120 121 122 
3 123 124 125 
3 126 127 128 
3 129 130 131 
3 132 133 134 
3 135 136 137 
3 138 139 140 
3 141 142 143 
3 144 145 146 
3 147 144 146 
3 148 147 146 
3 149 148 146 
3 150 149 146 
3 151 150 146 
3 152 151 146 
3 145 152 146 
3 153 154 155 
3 156 157 158 
3 159 160 161 
3 162 163 164 
3 165 166 167 
3 168 169 170 
3 171 172 173 
3 174 175 176 
3 177 178 179 
3 180 181 182 
3 181 183 182 
3 184 185 183 
3 185 186 183 
3 187 188 186 
3 188 189 186 
3 190 191 189 
3 191 182 189 
3 192 193 194 
3 195 196 197 
3 198 199 200 
3 201 202 203 
3 204 205 206 
3 207 208 209 
3 210 211 212 
3 213 214 215 
3 216 217 218 
3 219 220 221 
3 222 223 224 
3 225 226 227 
3 228 229 230 
3 231 232 233 
3 234 235 236 
3 237 238 239 
3 240 241 242 
3 243 244 245 
3 246 247 248 
3 249 250 251 
3 252 253 254 
3 255 256 257 
3 258 259 260 
3 261 262 263 
3 264 265 266 
3 267 268 269 
3 270 271 272 
3 273 274 275 
3 276 277 278 
3 279 280 281 
3 282 283 284 
3 285 286 287 
3 288 289 290 
3 291 292 293 
3 294 295 296 
3 297 298 299 
3 300 301 302 
3 303 304 305 
3 306 307 308 
3 309 310 311 
3 312 313 314 
3 315 316 317 
3 318 319 320 
3 321 322 323 
3 324 325 326 
3 327 328 329 
3 330 331 332 
3 333 334 335 
3 336 337 338 
3 339 340 341 
3 342 343 344 
3 345 346 347 
3 348 349 350 
3 351 352 353 
3 354 355 356 
3 357 358 359 
3 360 361 362 
3 363 364 365 
3 366 367 368 
3 369 370 371 
3 372 373 374 
3 375 376 377 
3 378 379 380 
3 381 382 383 
3 384 385 386 
3 387 388 389 
3 390 391 392 
3 393 394 395 
3 396 397 398 
3 399 400 401 
3 402 403 404 
3 405 406 407 
3 408 409 410 
3 181 184 183 
3 185 187 186 
3 188 190 189 
3 191 180 182 
3 411 412 413 
3 414 415 416 
3 417 418 419 
3 420 421 422 
3 423 424 425 
3 426 427 428 
3 429 430 431 
3 432 433 434 
3 435 436 437 
3 438 439 440 
3 441 442 443 
3 444 445 446 
3 447 448 449 
3 450 451 452 
3 453 454 455 
3 456 457 458 
