ply
format ascii 1.0
comment VCGLIB generated
element vertex 483
property float x
property float y
property float z
property float nx
property float ny
property float nz
property uchar red
property uchar green
property uchar blue
property uchar alpha
element face 248
property list uchar int vertex_indices
end_header
2.346428 -11.36912 3.23036 -1.111461e-07 -0.9396927 0.34202 255 255 255 255 
17.49115 -6.86843 15.59582 -1.111461e-07 -0.9396927 0.34202 255 255 255 255 
0.4345679 -10.23654 6.342093 -1.111461e-07 -0.9396927 0.34202 255 255 255 255 
36.23307 -7.597946 22.67783 0.8560154 0.0265733 0.516267 255 255 255 255 
34.56817 -4.669456 25.28765 0.8560154 0.0265733 0.516267 255 255 255 255 
34.32121 -6.465367 25.78957 0.8560154 0.0265733 0.516267 255 255 255 255 
19.40304 -6.238399 11.84257 1.111461e-07 0.9396927 -0.34202 255 255 255 255 
0.4345618 -8.473973 5.700567 1.111461e-07 0.9396927 -0.34202 255 255 255 255 
17.49118 -5.105821 14.95431 1.111461e-07 0.9396927 -0.34202 255 255 255 255 
2.346421 -9.60655 2.588833 -0.8660253 -0.1710091 -0.4698468 255 255 255 255 
0.4345679 -10.23654 6.342093 -0.8660253 -0.1710091 -0.4698468 255 255 255 255 
0.4345618 -8.473973 5.700567 -0.8660253 -0.1710091 -0.4698468 255 255 255 255 
2.346421 -9.60655 2.588833 0.5000002 -0.296198 -0.8137977 255 255 255 255 
19.40301 -8.001008 12.48409 0.5000002 -0.296198 -0.8137977 255 255 255 255 
2.346428 -11.36912 3.23036 0.5000002 -0.296198 -0.8137977 255 255 255 255 
0.4345679 -10.23654 6.342093 -0.5000002 0.296198 0.8137977 255 255 255 255 
17.49118 -5.105821 14.95431 -0.5000002 0.296198 0.8137977 255 255 255 255 
0.4345618 -8.473973 5.700567 -0.5000002 0.296198 0.8137977 255 255 255 255 
19.40301 -8.001008 12.48409 -0.1367528 -0.9549071 0.2635362 255 255 255 255 
34.32121 -6.465367 25.78957 -0.1367528 -0.9549071 0.2635362 255 255 255 255 
17.49115 -6.86843 15.59582 -0.1367528 -0.9549071 0.2635362 255 255 255 255 
36.48003 -5.802035 22.17591 0.5000002 -0.296198 -0.8137977 255 255 255 255 
36.23307 -7.597946 22.67783 0.5000002 -0.296198 -0.8137977 255 255 255 255 
17.49118 -5.105821 14.95431 0.1355166 0.9548764 -0.2642846 255 255 255 255 
36.48003 -5.802035 22.17591 0.1355166 0.9548764 -0.2642846 255 255 255 255 
19.40304 -6.238399 11.84257 0.1355166 0.9548764 -0.2642846 255 255 255 255 
17.49115 -6.86843 15.59582 -0.5000002 0.296198 0.8137977 255 255 255 255 
34.56817 -4.669456 25.28765 -0.5000002 0.296198 0.8137977 255 255 255 255 
25.2956 6.203868 24.51777 0.5022964 0.2265854 -0.8344803 255 255 255 255 
30.07568 -2.270166 25.09408 0.5022964 0.2265854 -0.8344803 255 255 255 255 
27.58112 -2.59009 23.50569 0.5022964 0.2265854 -0.8344803 255 255 255 255 
27.58116 12.28985 18.08986 0.5022973 -0.709968 -0.4936021 255 255 255 255 
27.72004 6.793207 26.13717 0.5022973 -0.709968 -0.4936021 255 255 255 255 
25.2956 6.203868 24.51777 0.5022973 -0.709968 -0.4936021 255 255 255 255 
34.78691 10.27487 11.84423 0.07073087 -0.9225864 0.3792512 255 255 255 255 
27.58116 12.28985 18.08986 0.07073087 -0.9225864 0.3792512 255 255 255 255 
32.1523 9.581924 10.6499 0.07073087 -0.9225864 0.3792512 255 255 255 255 
37.14253 1.21136 10.80117 -0.3608357 -0.1986513 0.9112274 255 255 255 255 
32.1523 9.581924 10.6499 -0.3608357 -0.1986513 0.9112274 255 255 255 255 
34.43788 0.7880165 9.63784 -0.3608357 -0.1986513 0.9112274 255 255 255 255 
32.15226 -5.298018 16.06572 -0.3608361 0.7379016 0.5703496 255 255 255 255 
37.14253 1.21136 10.80117 -0.3608361 0.7379016 0.5703496 255 255 255 255 
34.43788 0.7880165 9.63784 -0.3608361 0.7379016 0.5703496 255 255 255 255 
30.07568 -2.270166 25.09408 0.07073099 0.9505203 -0.3025036 255 255 255 255 
32.15226 -5.298018 16.06572 0.07073099 0.9505203 -0.3025036 255 255 255 255 
27.58112 -2.59009 23.50569 0.07073099 0.9505203 -0.3025036 255 255 255 255 
27.10268 -3.864141 24.85132 -0.5163077 -0.2291558 0.8251751 255 255 255 255 
26.73378 7.37746 27.7424 -0.5163077 -0.2291558 0.8251751 255 255 255 255 
24.33869 6.770739 26.07524 -0.5163077 -0.2291558 0.8251751 255 255 255 255 
24.33869 6.770739 26.07524 -0.5163075 0.705956 0.4848223 255 255 255 255 
29.58253 14.96314 19.73057 -0.5163075 0.705956 0.4848223 255 255 255 255 
27.10268 14.13077 18.3017 -0.5163075 0.705956 0.4848223 255 255 255 255 
27.10268 14.13077 18.3017 -0.08540584 0.9182473 -0.3866882 255 255 255 255 
35.28002 11.58797 10.45737 -0.08540584 0.9182473 -0.3866882 255 255 255 255 
32.63073 10.85598 9.304274 -0.08540584 0.9182473 -0.3866882 255 255 255 255 
32.63073 10.85598 9.304274 0.3454967 0.1954268 -0.9178455 255 255 255 255 
38.12878 0.6271082 9.195949 0.3454967 0.1954268 -0.9178455 255 255 255 255 
35.39479 0.2211481 8.080376 0.3454967 0.1954268 -0.9178455 255 255 255 255 
35.39479 0.2211481 8.080376 0.3454964 -0.7396852 -0.5774928 255 255 255 255 
35.27999 -6.95849 17.20771 0.3454964 -0.7396852 -0.5774928 255 255 255 255 
32.63073 -7.13894 15.85389 0.3454964 -0.7396852 -0.5774928 255 255 255 255 
32.63073 -7.13894 15.85389 -0.08540528 -0.9519767 0.2940178 255 255 255 255 
29.5825 -3.583321 26.48092 -0.08540528 -0.9519767 0.2940178 255 255 255 255 
27.10268 -3.864141 24.85132 -0.08540528 -0.9519767 0.2940178 255 255 255 255 
25.2956 6.203868 24.51777 -0.8660254 -0.1710099 -0.4698465 255 255 255 255 
27.10268 -3.864141 24.85132 -0.8660254 -0.1710099 -0.4698465 255 255 255 255 
24.33869 6.770739 26.07524 -0.8660254 -0.1710099 -0.4698465 255 255 255 255 
29.5825 -3.583321 26.48092 0.8660259 0.1710101 0.4698455 255 255 255 255 
27.72004 6.793207 26.13717 0.8660259 0.1710101 0.4698455 255 255 255 255 
26.73378 7.37746 27.7424 0.8660259 0.1710101 0.4698455 255 255 255 255 
27.10268 14.13077 18.3017 -0.8660253 -0.1710091 -0.4698468 255 255 255 255 
25.2956 6.203868 24.51777 -0.8660253 -0.1710091 -0.4698468 255 255 255 255 
24.33869 6.770739 26.07524 -0.8660253 -0.1710091 -0.4698468 255 255 255 255 
27.72004 6.793207 26.13717 0.8660259 0.1710088 0.469846 255 255 255 255 
29.58253 14.96314 19.73057 0.8660259 0.1710088 0.469846 255 255 255 255 
26.73378 7.37746 27.7424 0.8660259 0.1710088 0.469846 255 255 255 255 
32.63073 10.85598 9.304274 -0.8660253 -0.1710113 -0.469846 255 255 255 255 
27.58116 12.28985 18.08986 -0.8660253 -0.1710113 -0.469846 255 255 255 255 
27.10268 14.13077 18.3017 -0.8660253 -0.1710113 -0.469846 255 255 255 255 
30.07567 13.06579 19.51225 0.8660253 0.1710091 0.4698468 255 255 255 255 
35.28002 11.58797 10.45737 0.8660253 0.1710091 0.4698468 255 255 255 255 
29.58253 14.96314 19.73057 0.8660253 0.1710091 0.4698468 255 255 255 255 
34.43788 0.7880165 9.63784 -0.8660254 -0.1710099 -0.4698465 255 255 255 255 
32.63073 10.85598 9.304274 -0.8660254 -0.1710099 -0.4698465 255 255 255 255 
35.39479 0.2211481 8.080376 -0.8660254 -0.1710099 -0.4698465 255 255 255 255 
35.28002 11.58797 10.45737 0.8660254 0.1710099 0.4698465 255 255 255 255 
37.14253 1.21136 10.80117 0.8660254 0.1710099 0.4698465 255 255 255 255 
38.12878 0.6271082 9.195949 0.8660254 0.1710099 0.4698465 255 255 255 255 
32.63073 -7.13894 15.85389 -0.8660254 -0.1710099 -0.4698465 255 255 255 255 
35.27999 -6.95849 17.20771 0.8660254 0.1710099 0.4698465 255 255 255 255 
27.10268 -3.864141 24.85132 -0.8660253 -0.1710113 -0.469846 255 255 255 255 
32.15226 -5.298018 16.06572 -0.8660253 -0.1710113 -0.469846 255 255 255 255 
32.63073 -7.13894 15.85389 -0.8660253 -0.1710113 -0.469846 255 255 255 255 
34.78692 -5.061088 17.42608 0.8660253 0.1710091 0.4698468 255 255 255 255 
29.5825 -3.583321 26.48092 0.8660253 0.1710091 0.4698468 255 255 255 255 
35.27999 -6.95849 17.20771 0.8660253 0.1710091 0.4698468 255 255 255 255 
-3.225709 -1.189107 9.795784 -0.5000002 0.296198 0.8137977 255 255 255 255 
13.83091 5.772122 17.74175 -0.5000002 0.296198 0.8137977 255 255 255 255 
-3.225707 2.40408 8.487974 -0.5000002 0.296198 0.8137977 255 255 255 255 
29.10703 10.01598 29.40166 0.7802138 0.2139377 0.58779 255 255 255 255 
30.2837 5.920985 29.33034 0.7802138 0.2139377 0.58779 255 255 255 255 
30.28368 9.514037 28.02256 0.7802138 0.2139377 0.58779 255 255 255 255 
14.76876 5.216543 16.21532 0.5000002 -0.296198 -0.8137977 255 255 255 255 
-2.287866 -1.744683 8.269354 0.5000002 -0.296198 -0.8137977 255 255 255 255 
-2.287863 1.848504 6.961543 0.5000002 -0.296198 -0.8137977 255 255 255 255 
-2.287866 -1.744683 8.269354 -0.8660253 -0.1710104 -0.4698463 255 255 255 255 
-3.225707 2.40408 8.487974 -0.8660253 -0.1710104 -0.4698463 255 255 255 255 
-2.287863 1.848504 6.961543 -0.8660253 -0.1710104 -0.4698463 255 255 255 255 
-2.287866 -1.744683 8.269354 -1.111461e-07 -0.9396927 0.34202 255 255 255 255 
13.83087 2.179006 19.04951 -1.111461e-07 -0.9396927 0.34202 255 255 255 255 
-3.225709 -1.189107 9.795784 -1.111461e-07 -0.9396927 0.34202 255 255 255 255 
-3.225707 2.40408 8.487974 1.111461e-07 0.9396927 -0.34202 255 255 255 255 
14.76876 5.216543 16.21532 1.111461e-07 0.9396927 -0.34202 255 255 255 255 
-2.287863 1.848504 6.961543 1.111461e-07 0.9396927 -0.34202 255 255 255 255 
13.83091 5.772122 17.74175 -0.6304798 0.2654776 0.7293949 255 255 255 255 
29.10711 6.422857 30.70949 -0.6304798 0.2654776 0.7293949 255 255 255 255 
29.10703 10.01598 29.40166 -0.6304798 0.2654776 0.7293949 255 255 255 255 
30.2837 5.920985 29.33034 -1.111461e-07 -0.9396927 0.34202 255 255 255 255 
29.10711 6.422857 30.70949 -1.111461e-07 -0.9396927 0.34202 255 255 255 255 
14.76876 5.216543 16.21532 0.6293566 -0.2657893 -0.7302509 255 255 255 255 
30.2837 5.920985 29.33034 0.6293566 -0.2657893 -0.7302509 255 255 255 255 
14.76871 1.62343 17.52309 0.6293566 -0.2657893 -0.7302509 255 255 255 255 
13.83091 5.772122 17.74175 1.111461e-07 0.9396927 -0.34202 255 255 255 255 
30.28368 9.514037 28.02256 1.111461e-07 0.9396927 -0.34202 255 255 255 255 
0.4345158 7.11477 0.02670217 1.111461e-07 0.9396927 -0.34202 255 255 255 255 
19.40308 9.350295 6.168776 1.111461e-07 0.9396927 -0.34202 255 255 255 255 
2.346376 5.982192 -3.085032 1.111461e-07 0.9396927 -0.34202 255 255 255 255 
34.32122 16.72657 17.3484 0.8560154 0.3114935 0.4125645 255 255 255 255 
36.48004 13.89557 15.00658 0.8560154 0.3114935 0.4125645 255 255 255 255 
36.23309 15.59399 14.23667 0.8560154 0.3114935 0.4125645 255 255 255 255 
17.49113 8.720334 9.921967 -1.111461e-07 -0.9396927 0.34202 255 255 255 255 
2.346412 4.219643 -2.443495 -1.111461e-07 -0.9396927 0.34202 255 255 255 255 
19.40299 7.587755 6.810235 -1.111461e-07 -0.9396927 0.34202 255 255 255 255 
0.4345527 5.352222 0.6682389 -0.8660253 -0.1710104 -0.4698463 255 255 255 255 
2.346376 5.982192 -3.085032 -0.8660253 -0.1710104 -0.4698463 255 255 255 255 
2.346412 4.219643 -2.443495 -0.8660253 -0.1710104 -0.4698463 255 255 255 255 
0.4345158 7.11477 0.02670217 -0.5000002 0.296198 0.8137977 255 255 255 255 
17.49113 8.720334 9.921967 -0.5000002 0.296198 0.8137977 255 255 255 255 
17.49122 10.48287 9.28051 -0.5000002 0.296198 0.8137977 255 255 255 255 
2.346376 5.982192 -3.085032 0.5000002 -0.296198 -0.8137977 255 255 255 255 
19.40299 7.587755 6.810235 0.5000002 -0.296198 -0.8137977 255 255 255 255 
2.346412 4.219643 -2.443495 0.5000002 -0.296198 -0.8137977 255 255 255 255 
17.49122 10.48287 9.28051 -0.1367528 0.9008991 -0.4119218 255 255 255 255 
36.23309 15.59399 14.23667 -0.1367528 0.9008991 -0.4119218 255 255 255 255 
19.40308 9.350295 6.168776 -0.1367528 0.9008991 -0.4119218 255 255 255 255 
34.56818 15.02815 18.11831 -0.5000002 0.296198 0.8137977 255 255 255 255 
34.32122 16.72657 17.3484 -0.5000002 0.296198 0.8137977 255 255 255 255 
19.40299 7.587755 6.810235 0.1355165 -0.9013568 0.4113287 255 255 255 255 
34.56818 15.02815 18.11831 0.1355165 -0.9013568 0.4113287 255 255 255 255 
17.49113 8.720334 9.921967 0.1355165 -0.9013568 0.4113287 255 255 255 255 
19.40308 9.350295 6.168776 0.5000002 -0.296198 -0.8137977 255 255 255 255 
36.48004 13.89557 15.00658 0.5000002 -0.296198 -0.8137977 255 255 255 255 
-5.898409 -8.660019 -4.394374 0.7499999 0.6179455 0.2358889 255 255 255 255 
-13.08041 -1.797115 0.4621531 0.7499999 0.6179455 0.2358889 255 255 255 255 
-9.09041 -6.769089 0.80091 0.7499999 0.6179455 0.2358889 255 255 255 255 
-11.21751 -8.521668 0.1318969 -0.2165063 -0.1076314 0.9703302 255 255 255 255 
-13.08041 -1.797115 0.4621531 -0.2165063 -0.1076314 0.9703302 255 255 255 255 
-15.20751 -3.54969 -0.2068626 -0.2165063 -0.1076314 0.9703302 255 255 255 255 
-15.20751 -3.54969 -0.2068626 -0.6536088 0.6376812 0.4076253 255 255 255 255 
-13.7424 1.203367 -5.293253 -0.6536088 0.6376812 0.4076253 255 255 255 255 
-15.8695 -0.5492066 -5.962264 -0.6536088 0.6376812 0.4076253 255 255 255 255 
-21.84691 9.504317 -13.29399 -0.4330128 0.7282926 -0.5311214 255 255 255 255 
-16.7998 9.52708 -17.37758 -0.4330128 0.7282926 -0.5311214 255 255 255 255 
-18.9269 7.774511 -18.04659 -0.4330128 0.7282926 -0.5311214 255 255 255 255 
-12.94949 -2.279012 -10.71487 0.1938003 0.1356795 -0.9716133 255 255 255 255 
-6.696399 -5.578979 -9.928433 0.1938003 0.1356795 -0.9716133 255 255 255 255 
-8.823495 -7.331553 -10.59744 0.1938003 0.1356795 -0.9716133 255 255 255 255 
-8.823495 -7.331553 -10.59744 0.6495191 -0.6206615 -0.4392085 255 255 255 255 
-5.898409 -8.660019 -4.394374 0.6495191 -0.6206615 -0.4392085 255 255 255 255 
-8.025512 -10.4126 -5.063386 0.6495191 -0.6206615 -0.4392085 255 255 255 255 
-8.025512 -10.4126 -5.063386 0.4330128 -0.7282926 0.5311214 255 255 255 255 
-9.09041 -6.769089 0.80091 0.4330128 -0.7282926 0.5311214 255 255 255 255 
-11.21751 -8.521668 0.1318969 0.4330128 -0.7282926 0.5311214 255 255 255 255 
-8.025512 -10.4126 -5.063386 -0.7499999 -0.6179455 -0.2358889 255 255 255 255 
-15.20751 -3.54969 -0.2068626 -0.7499999 -0.6179455 -0.2358889 255 255 255 255 
-8.823495 -7.331553 -10.59744 -0.7499999 -0.6179455 -0.2358889 255 255 255 255 
-12.94949 -2.279012 -10.71487 -0.7499999 -0.6179455 -0.2358889 255 255 255 255 
-15.8695 -0.5492066 -5.962264 -0.7499999 -0.6179455 -0.2358889 255 255 255 255 
-10.82239 -0.5264387 -10.04585 0.7499999 0.6179455 0.2358889 255 255 255 255 
-13.7424 1.203367 -5.293253 0.7499999 0.6179455 0.2358889 255 255 255 255 
-18.9269 7.774511 -18.04659 -0.7499999 -0.6179455 -0.2358889 255 255 255 255 
-13.7424 1.203367 -5.293253 -0.5000002 0.296198 0.8137977 255 255 255 255 
-21.84691 9.504317 -13.29399 -0.5000002 0.296198 0.8137977 255 255 255 255 
-15.8695 -0.5492066 -5.962264 -0.5000002 0.296198 0.8137977 255 255 255 255 
-19.71982 11.25689 -12.62498 0.7499999 0.6179455 0.2358889 255 255 255 255 
-12.94949 -2.279012 -10.71487 0.5000002 -0.296198 -0.8137977 255 255 255 255 
-16.7998 9.52708 -17.37758 0.5000002 -0.296198 -0.8137977 255 255 255 255 
-10.82239 -0.5264387 -10.04585 0.5000002 -0.296198 -0.8137977 255 255 255 255 
6.006732 -3.065182 -6.5387 0.5000002 -0.296198 -0.8137977 255 255 255 255 
23.06331 -3.290257 4.02284 0.5000002 -0.296198 -0.8137977 255 255 255 255 
6.006729 -6.65837 -5.230887 0.5000002 -0.296198 -0.8137977 255 255 255 255 
41.44723 2.705694 9.316802 0.9318169 0.1241286 0.3410416 255 255 255 255 
40.7646 -0.2878558 12.27168 0.9318169 0.1241286 0.3410416 255 255 255 255 
41.44731 -0.8874304 10.62464 0.9318169 0.1241286 0.3410416 255 255 255 255 
22.12551 0.8584354 4.241515 -0.5000002 0.296198 0.8137977 255 255 255 255 
5.068883 -6.102793 -3.704456 -0.5000002 0.296198 0.8137977 255 255 255 255 
22.12546 -2.734681 5.549272 -0.5000002 0.296198 0.8137977 255 255 255 255 
5.068887 -2.509606 -5.012268 -0.8660253 -0.1710104 -0.4698463 255 255 255 255 
6.006729 -6.65837 -5.230887 -0.8660253 -0.1710104 -0.4698463 255 255 255 255 
5.068883 -6.102793 -3.704456 -0.8660253 -0.1710104 -0.4698463 255 255 255 255 
5.068887 -2.509606 -5.012268 1.111461e-07 0.9396927 -0.34202 255 255 255 255 
23.06335 0.3028587 2.71508 1.111461e-07 0.9396927 -0.34202 255 255 255 255 
6.006732 -3.065182 -6.5387 1.111461e-07 0.9396927 -0.34202 255 255 255 255 
6.006729 -6.65837 -5.230887 -1.111461e-07 -0.9396927 0.34202 255 255 255 255 
22.12546 -2.734681 5.549272 -1.111461e-07 -0.9396927 0.34202 255 255 255 255 
5.068883 -6.102793 -3.704456 -1.111461e-07 -0.9396927 0.34202 255 255 255 255 
23.06335 0.3028587 2.71508 0.3569743 -0.3194862 -0.8777801 255 255 255 255 
41.44731 -0.8874304 10.62464 0.3569743 -0.3194862 -0.8777801 255 255 255 255 
23.06331 -3.290257 4.02284 0.3569743 -0.3194861 -0.8777801 255 255 255 255 
40.76458 3.305193 10.9639 1.111461e-07 0.9396927 -0.34202 255 255 255 255 
41.44723 2.705694 9.316802 1.111461e-07 0.9396927 -0.34202 255 255 255 255 
22.12546 -2.734681 5.549272 -0.3583248 0.3193091 0.8772942 255 255 255 255 
40.76458 3.305193 10.9639 -0.3583248 0.3193091 0.8772942 255 255 255 255 
22.12551 0.8584354 4.241515 -0.3583248 0.3193091 0.8772941 255 255 255 255 
23.06331 -3.290257 4.02284 -1.111461e-07 -0.9396927 0.34202 255 255 255 255 
40.7646 -0.2878558 12.27168 -1.111461e-07 -0.9396927 0.34202 255 255 255 255 
14.72179 3.130548 16.07397 0.4330126 0.2133317 -0.8757795 255 255 255 255 
13.81912 -3.769913 13.94679 0.4330126 0.2133317 -0.8757795 255 255 255 255 
12.1573 2.62414 14.68265 0.4330126 0.2133317 -0.8757795 255 255 255 255 
13.81907 7.049212 10.00892 0.433013 -0.7263615 -0.5337591 255 255 255 255 
14.72179 3.130548 16.07397 0.433013 -0.7263615 -0.5337591 255 255 255 255 
12.1573 2.62414 14.68265 0.433013 -0.7263615 -0.5337591 255 255 255 255 
19.70731 5.586758 5.990672 -1.111461e-07 -0.9396927 0.34202 255 255 255 255 
13.81907 7.049212 10.00892 -1.111461e-07 -0.9396927 0.34202 255 255 255 255 
17.14274 5.080284 4.599332 -1.111461e-07 -0.9396927 0.34202 255 255 255 255 
18.80463 -1.313712 3.863493 -0.4330126 -0.2133317 0.8757795 255 255 255 255 
19.70731 5.586758 5.990672 -0.4330126 -0.2133317 0.8757795 255 255 255 255 
17.14274 5.080284 4.599332 -0.4330126 -0.2133317 0.8757795 255 255 255 255 
17.14278 -5.738842 8.537208 -0.433013 0.7263615 0.5337591 255 255 255 255 
21.36912 -0.8073055 5.254808 -0.433013 0.7263615 0.5337591 255 255 255 255 
18.80463 -1.313712 3.863493 -0.433013 0.7263615 0.5337591 255 255 255 255 
16.38361 -3.263505 15.3381 8.854333e-07 0.9396929 -0.3420196 255 255 255 255 
17.14278 -5.738842 8.537208 8.854333e-07 0.9396929 -0.3420196 255 255 255 255 
13.81912 -3.769913 13.94679 8.854333e-07 0.9396929 -0.3420196 255 255 255 255 
13.35722 -4.999777 15.24575 -0.4330126 -0.2133317 0.8757795 255 255 255 255 
13.79803 3.67778 17.57748 -0.4330126 -0.2133317 0.8757795 255 255 255 255 
11.23354 3.171373 16.18616 -0.4330126 -0.2133317 0.8757795 255 255 255 255 
11.23354 3.171373 16.18616 -0.433013 0.7263615 0.5337591 255 255 255 255 
15.92178 9.33278 11.6048 -0.433013 0.7263615 0.5337591 255 255 255 255 
13.35717 8.82638 10.21341 -0.433013 0.7263615 0.5337591 255 255 255 255 
13.35717 8.82638 10.21341 8.854333e-07 0.9396929 -0.3420196 255 255 255 255 
20.16921 6.816617 4.691708 8.854333e-07 0.9396929 -0.3420196 255 255 255 255 
17.6046 6.310218 3.300316 8.854333e-07 0.9396929 -0.3420196 255 255 255 255 
19.72839 -1.860943 2.359987 0.4330126 0.2133317 -0.8757795 255 255 255 255 
20.16921 6.816617 4.691708 0.4330126 0.2133317 -0.8757795 255 255 255 255 
22.29288 -1.354537 3.7513 0.4330126 0.2133317 -0.8757795 255 255 255 255 
19.72839 -1.860943 2.359987 0.433013 -0.7263615 -0.5337591 255 255 255 255 
20.16914 -7.009527 9.723972 0.433013 -0.7263615 -0.5337591 255 255 255 255 
17.60465 -7.515938 8.332657 0.433013 -0.7263615 -0.5337591 255 255 255 255 
17.60465 -7.515938 8.332657 -1.111461e-07 -0.9396927 0.34202 255 255 255 255 
15.92171 -4.493366 16.63707 -1.111461e-07 -0.9396927 0.34202 255 255 255 255 
13.35722 -4.999777 15.24575 -1.111461e-07 -0.9396927 0.34202 255 255 255 255 
11.23354 3.171373 16.18616 -0.8660254 -0.1710099 -0.4698465 255 255 255 255 
13.81912 -3.769913 13.94679 -0.8660254 -0.1710099 -0.4698465 255 255 255 255 
13.35722 -4.999777 15.24575 -0.8660254 -0.1710099 -0.4698465 255 255 255 255 
16.38361 -3.263505 15.3381 0.8660254 0.1710099 0.4698465 255 255 255 255 
13.79803 3.67778 17.57748 0.8660254 0.1710099 0.4698465 255 255 255 255 
15.92171 -4.493366 16.63707 0.8660254 0.1710099 0.4698465 255 255 255 255 
13.35717 8.82638 10.21341 -0.8660254 -0.1710099 -0.4698465 255 255 255 255 
12.1573 2.62414 14.68265 -0.8660254 -0.1710099 -0.4698465 255 255 255 255 
14.72179 3.130548 16.07397 0.8660259 0.1710096 0.4698457 255 255 255 255 
15.92178 9.33278 11.6048 0.8660259 0.1710096 0.4698457 255 255 255 255 
13.79803 3.67778 17.57748 0.8660259 0.1710096 0.4698457 255 255 255 255 
17.6046 6.310218 3.300316 -0.8660254 -0.1710099 -0.4698465 255 255 255 255 
13.81907 7.049212 10.00892 -0.8660254 -0.1710099 -0.4698465 255 255 255 255 
16.38364 7.555688 11.40026 0.8660253 0.1710104 0.4698463 255 255 255 255 
20.16921 6.816617 4.691708 0.8660253 0.1710104 0.4698463 255 255 255 255 
15.92178 9.33278 11.6048 0.8660253 0.1710104 0.4698463 255 255 255 255 
18.80463 -1.313712 3.863493 -0.8660254 -0.1710099 -0.4698465 255 255 255 255 
19.72839 -1.860943 2.359987 -0.8660254 -0.1710099 -0.4698465 255 255 255 255 
20.16921 6.816617 4.691708 0.8660259 0.1710101 0.4698455 255 255 255 255 
21.36912 -0.8073055 5.254808 0.8660259 0.1710101 0.4698455 255 255 255 255 
22.29288 -1.354537 3.7513 0.8660259 0.1710101 0.4698455 255 255 255 255 
17.60465 -7.515938 8.332657 -0.8660253 -0.1710104 -0.4698463 255 255 255 255 
18.80463 -1.313712 3.863493 -0.8660253 -0.1710104 -0.4698463 255 255 255 255 
19.72839 -1.860943 2.359987 -0.8660253 -0.1710104 -0.4698463 255 255 255 255 
21.36912 -0.8073055 5.254808 0.8660259 0.1710096 0.4698457 255 255 255 255 
20.16914 -7.009527 9.723972 0.8660259 0.1710096 0.4698457 255 255 255 255 
22.29288 -1.354537 3.7513 0.8660259 0.1710096 0.4698457 255 255 255 255 
17.60465 -7.515938 8.332657 -0.8660254 -0.1710099 -0.4698465 255 255 255 255 
19.70727 -5.232432 9.928525 0.8660254 0.1710099 0.4698465 255 255 255 255 
20.16914 -7.009527 9.723972 0.8660254 0.1710099 0.4698465 255 255 255 255 
-34.67203 -12.69491 -18.77611 -1.111461e-07 -0.9396927 0.34202 255 255 255 255 
1.79124 -4.148687 4.704592 -1.111461e-07 -0.9396927 0.34202 255 255 255 255 
-36.37617 -11.68538 -16.00247 -1.111461e-07 -0.9396927 0.34202 255 255 255 255 
-33.81999 -10.42604 -21.17248 0.433013 -0.7263615 -0.5337591 255 255 255 255 
3.49538 -5.158214 1.930942 0.433013 -0.7263615 -0.5337591 255 255 255 255 
-34.67203 -12.69491 -18.77611 0.433013 -0.7263615 -0.5337591 255 255 255 255 
-34.67208 -7.147647 -20.79518 0.4330126 0.2133317 -0.8757795 255 255 255 255 
4.347507 -2.88929 -0.4653866 0.4330126 0.2133317 -0.8757795 255 255 255 255 
-33.81999 -10.42604 -21.17248 0.4330126 0.2133317 -0.8757795 255 255 255 255 
-36.37622 -6.138123 -18.02154 1.111461e-07 0.9396927 -0.34202 255 255 255 255 
3.495419 0.3890977 -0.08808906 1.111461e-07 0.9396927 -0.34202 255 255 255 255 
-34.67208 -7.147647 -20.79518 1.111461e-07 0.9396927 -0.34202 255 255 255 255 
-37.22827 -8.40699 -15.62517 -0.433013 0.7263615 0.5337591 255 255 255 255 
1.791279 1.398624 2.685562 -0.433013 0.7263615 0.5337591 255 255 255 255 
-36.37622 -6.138123 -18.02154 -0.433013 0.7263615 0.5337591 255 255 255 255 
-36.37617 -11.68538 -16.00247 -0.4330134 -0.2133305 0.8757794 255 255 255 255 
0.9392278 -0.8702378 5.081913 -0.4330134 -0.2133305 0.8757794 255 255 255 255 
-37.22827 -8.40699 -15.62517 -0.4330134 -0.2133305 0.8757794 255 255 255 255 
-36.37622 -6.138123 -18.02154 -0.8660254 -0.1710099 -0.4698465 255 255 255 255 
-34.67208 -7.147647 -20.79518 -0.8660254 -0.1710099 -0.4698465 255 255 255 255 
-34.67203 -12.69491 -18.77611 -0.8660254 -0.1710099 -0.4698465 255 255 255 255 
8.035325 -9.405499 3.140976 0.8660254 0.1710099 0.4698465 255 255 255 255 
1.664145 1.281746 10.99445 0.8660254 0.1710099 0.4698465 255 255 255 255 
3.787895 -6.889338 10.05407 0.8660254 0.1710099 0.4698465 255 255 255 255 
-1.604056 0.636395 9.221353 -0.4330127 -0.213331 0.8757796 255 255 255 255 
3.787895 -6.889338 10.05407 -0.4330127 -0.213331 0.8757796 255 255 255 255 
1.664145 1.281746 10.99445 -0.4330127 -0.213331 0.8757796 255 255 255 255 
0.5195649 6.2914 3.248601 -0.433013 0.7263615 0.5337591 255 255 255 255 
1.664145 1.281746 10.99445 -0.433013 0.7263615 0.5337591 255 255 255 255 
3.787884 6.936745 5.021782 -0.433013 0.7263615 0.5337591 255 255 255 255 
0.5195649 6.2914 3.248601 1.111461e-07 0.9396927 -0.34202 255 255 255 255 
8.035314 4.420584 -1.891313 1.111461e-07 0.9396927 -0.34202 255 255 255 255 
4.766994 3.775239 -3.664495 1.111461e-07 0.9396927 -0.34202 255 255 255 255 
4.766994 3.775239 -3.664495 0.4330126 0.2133317 -0.8757795 255 255 255 255 
10.15899 -3.75057 -2.831721 0.4330126 0.2133317 -0.8757795 255 255 255 255 
6.890792 -4.395923 -4.604826 0.4330126 0.2133317 -0.8757795 255 255 255 255 
6.890792 -4.395923 -4.604826 0.433013 -0.7263615 -0.5337591 255 255 255 255 
8.035325 -9.405499 3.140976 0.433013 -0.7263615 -0.5337591 255 255 255 255 
4.767034 -10.05093 1.367843 0.433013 -0.7263615 -0.5337591 255 255 255 255 
4.767034 -10.05093 1.367843 -1.111461e-07 -0.9396927 0.34202 255 255 255 255 
3.787895 -6.889338 10.05407 -1.111461e-07 -0.9396927 0.34202 255 255 255 255 
0.5196047 -7.534768 8.280937 -1.111461e-07 -0.9396927 0.34202 255 255 255 255 
0.9392278 -0.8702378 5.081913 -0.8660254 -0.1710099 -0.4698465 255 255 255 255 
0.5196047 -7.534768 8.280937 -0.8660254 -0.1710099 -0.4698465 255 255 255 255 
-1.604056 0.636395 9.221353 -0.8660254 -0.1710099 -0.4698465 255 255 255 255 
0.5195649 6.2914 3.248601 -0.8660254 -0.1710099 -0.4698465 255 255 255 255 
1.791279 1.398624 2.685562 -0.8660254 -0.1710099 -0.4698465 255 255 255 255 
3.495419 0.3890977 -0.08808906 -0.8660254 -0.1710099 -0.4698465 255 255 255 255 
4.766994 3.775239 -3.664495 -0.8660254 -0.1710099 -0.4698465 255 255 255 255 
4.347507 -2.88929 -0.4653866 -0.8660254 -0.1710099 -0.4698465 255 255 255 255 
6.890792 -4.395923 -4.604826 -0.8660254 -0.1710099 -0.4698465 255 255 255 255 
4.767034 -10.05093 1.367843 -0.8660254 -0.1710099 -0.4698465 255 255 255 255 
3.49538 -5.158214 1.930942 -0.8660254 -0.1710099 -0.4698465 255 255 255 255 
1.79124 -4.148687 4.704592 -0.8660254 -0.1710099 -0.4698465 255 255 255 255 
8.035314 4.420584 -1.891313 0.8660254 0.1710099 0.4698465 255 255 255 255 
3.787884 6.936745 5.021782 0.8660254 0.1710099 0.4698465 255 255 255 255 
19.40301 -8.001008 12.48409 -1.111461e-07 -0.9396927 0.34202 255 255 255 255 
36.48003 -5.802035 22.17591 0.8560154 0.0265733 0.516267 255 255 255 255 
2.346421 -9.60655 2.588833 1.111461e-07 0.9396927 -0.34202 255 255 255 255 
2.346428 -11.36912 3.23036 -0.8660253 -0.1710091 -0.4698468 255 255 255 255 
19.40304 -6.238399 11.84257 0.5000002 -0.296198 -0.8137977 255 255 255 255 
36.23307 -7.597946 22.67783 -0.1367528 -0.9549071 0.2635362 255 255 255 255 
34.56817 -4.669456 25.28765 0.1355166 0.9548764 -0.2642846 255 255 255 255 
34.32121 -6.465367 25.78957 -0.5000002 0.296198 0.8137977 255 255 255 255 
27.72004 6.793207 26.13717 0.5022964 0.2265854 -0.8344803 255 255 255 255 
30.07567 13.06579 19.51225 0.5022973 -0.709968 -0.4936021 255 255 255 255 
34.78691 10.27487 11.84423 0.07073165 -0.9225863 0.3792516 255 255 255 255 
30.07567 13.06579 19.51225 0.07073165 -0.9225863 0.3792516 255 255 255 255 
27.58116 12.28985 18.08986 0.07073165 -0.9225863 0.3792516 255 255 255 255 
34.78691 10.27487 11.84423 -0.3608357 -0.1986513 0.9112274 255 255 255 255 
32.15226 -5.298018 16.06572 -0.3608353 0.7379019 0.5703496 255 255 255 255 
34.78692 -5.061088 17.42608 -0.3608353 0.7379019 0.5703496 255 255 255 255 
37.14253 1.21136 10.80117 -0.3608353 0.7379019 0.5703496 255 255 255 255 
34.78692 -5.061088 17.42608 0.07073099 0.9505203 -0.3025036 255 255 255 255 
29.5825 -3.583321 26.48092 -0.5163077 -0.2291558 0.8251751 255 255 255 255 
26.73378 7.37746 27.7424 -0.5163075 0.705956 0.4848223 255 255 255 255 
29.58253 14.96314 19.73057 -0.08540584 0.9182473 -0.3866882 255 255 255 255 
35.28002 11.58797 10.45737 0.3454967 0.1954268 -0.9178455 255 255 255 255 
38.12878 0.6271082 9.195949 0.3454964 -0.7396852 -0.5774928 255 255 255 255 
35.27999 -6.95849 17.20771 -0.08540528 -0.9519767 0.2940178 255 255 255 255 
25.2956 6.203868 24.51777 -0.8660253 -0.1710104 -0.4698463 255 255 255 255 
27.58112 -2.59009 23.50569 -0.8660253 -0.1710104 -0.4698463 255 255 255 255 
27.10268 -3.864141 24.85132 -0.8660253 -0.1710104 -0.4698463 255 255 255 255 
29.5825 -3.583321 26.48092 0.8660249 0.1710102 0.4698473 255 255 255 255 
30.07568 -2.270166 25.09408 0.8660249 0.1710102 0.4698473 255 255 255 255 
27.72004 6.793207 26.13717 0.8660249 0.1710102 0.4698473 255 255 255 255 
27.10268 14.13077 18.3017 -0.8660249 -0.1710102 -0.4698473 255 255 255 255 
27.58116 12.28985 18.08986 -0.8660249 -0.1710102 -0.4698473 255 255 255 255 
25.2956 6.203868 24.51777 -0.8660249 -0.1710102 -0.4698473 255 255 255 255 
30.07567 13.06579 19.51225 0.8660259 0.1710088 0.469846 255 255 255 255 
32.63073 10.85598 9.304274 -0.8660253 -0.1710104 -0.4698463 255 255 255 255 
32.1523 9.581924 10.6499 -0.8660253 -0.1710104 -0.4698463 255 255 255 255 
27.58116 12.28985 18.08986 -0.8660253 -0.1710104 -0.4698463 255 255 255 255 
30.07567 13.06579 19.51225 0.8660253 0.1710121 0.4698457 255 255 255 255 
34.78691 10.27487 11.84423 0.8660253 0.1710121 0.4698457 255 255 255 255 
35.28002 11.58797 10.45737 0.8660253 0.1710121 0.4698457 255 255 255 255 
34.43788 0.7880165 9.63784 -0.8660259 -0.1710101 -0.4698455 255 255 255 255 
32.1523 9.581924 10.6499 -0.8660259 -0.1710101 -0.4698455 255 255 255 255 
32.63073 10.85598 9.304274 -0.8660259 -0.1710101 -0.4698455 255 255 255 255 
35.28002 11.58797 10.45737 0.8660263 0.1710106 0.4698444 255 255 255 255 
34.78691 10.27487 11.84423 0.8660263 0.1710106 0.4698444 255 255 255 255 
37.14253 1.21136 10.80117 0.8660263 0.1710106 0.4698444 255 255 255 255 
32.63073 -7.13894 15.85389 -0.8660249 -0.1710107 -0.4698471 255 255 255 255 
32.15226 -5.298018 16.06572 -0.8660249 -0.1710107 -0.4698471 255 255 255 255 
34.43788 0.7880165 9.63784 -0.8660249 -0.1710107 -0.4698471 255 255 255 255 
37.14253 1.21136 10.80117 0.8660259 0.1710088 0.469846 255 255 255 255 
34.78692 -5.061088 17.42608 0.8660259 0.1710088 0.469846 255 255 255 255 
35.27999 -6.95849 17.20771 0.8660259 0.1710088 0.469846 255 255 255 255 
27.58112 -2.59009 23.50569 -0.8660253 -0.1710113 -0.469846 255 255 255 255 
30.07568 -2.270166 25.09408 0.8660253 0.1710091 0.4698468 255 255 255 255 
13.83087 2.179006 19.04951 -0.5000002 0.296198 0.8137977 255 255 255 255 
29.10711 6.422857 30.70949 0.7802138 0.2139377 0.58779 255 255 255 255 
14.76871 1.62343 17.52309 0.5000002 -0.296198 -0.8137977 255 255 255 255 
-3.225709 -1.189107 9.795784 -0.8660253 -0.1710104 -0.4698463 255 255 255 255 
14.76871 1.62343 17.52309 -1.111461e-07 -0.9396927 0.34202 255 255 255 255 
13.83087 2.179006 19.04951 -0.6304798 0.2654776 0.7293949 255 255 255 255 
30.28368 9.514037 28.02256 0.6293566 -0.2657893 -0.7302509 255 255 255 255 
29.10703 10.01598 29.40166 1.111461e-07 0.9396927 -0.34202 255 255 255 255 
17.49122 10.48287 9.28051 1.111461e-07 0.9396927 -0.34202 255 255 255 255 
34.56818 15.02815 18.11831 0.8560154 0.3114935 0.4125645 255 255 255 255 
0.4345527 5.352222 0.6682389 -1.111461e-07 -0.9396927 0.34202 255 255 255 255 
0.4345158 7.11477 0.02670217 -0.8660253 -0.1710104 -0.4698463 255 255 255 255 
0.4345527 5.352222 0.6682389 -0.5000002 0.296198 0.8137977 255 255 255 255 
34.32122 16.72657 17.3484 -0.1367528 0.9008991 -0.4119218 255 255 255 255 
36.48004 13.89557 15.00658 0.1355165 -0.9013568 0.4113287 255 255 255 255 
36.23309 15.59399 14.23667 0.5000002 -0.296198 -0.8137977 255 255 255 255 
-6.696399 -5.578979 -9.928433 0.7499999 0.6179455 0.2358889 255 255 255 255 
-9.09041 -6.769089 0.80091 -0.2165063 -0.1076314 0.9703302 255 255 255 255 
-13.08041 -1.797115 0.4621531 -0.6536088 0.6376812 0.4076253 255 255 255 255 
-19.71982 11.25689 -12.62498 -0.4330128 0.7282926 -0.5311214 255 255 255 255 
-10.82239 -0.5264387 -10.04585 0.1938003 0.1356795 -0.9716133 255 255 255 255 
-6.696399 -5.578979 -9.928433 0.6495191 -0.6206615 -0.4392085 255 255 255 255 
-5.898409 -8.660019 -4.394374 0.4330128 -0.7282926 0.5311214 255 255 255 255 
-11.21751 -8.521668 0.1318969 -0.7499999 -0.6179455 -0.2358889 255 255 255 255 
-21.84691 9.504317 -13.29399 -0.7499999 -0.6179455 -0.2358889 255 255 255 255 
-19.71982 11.25689 -12.62498 -0.5000002 0.296198 0.8137977 255 255 255 255 
-16.7998 9.52708 -17.37758 0.7499999 0.6179455 0.2358889 255 255 255 255 
-18.9269 7.774511 -18.04659 0.5000002 -0.296198 -0.8137977 255 255 255 255 
23.06335 0.3028587 2.71508 0.5000002 -0.296198 -0.8137977 255 255 255 255 
40.76458 3.305193 10.9639 0.9318169 0.1241286 0.3410416 255 255 255 255 
5.068887 -2.509606 -5.012268 -0.5000002 0.296198 0.8137977 255 255 255 255 
6.006732 -3.065182 -6.5387 -0.8660253 -0.1710104 -0.4698463 255 255 255 255 
22.12551 0.8584354 4.241515 1.111461e-07 0.9396927 -0.34202 255 255 255 255 
41.44723 2.705694 9.316802 0.3569743 -0.3194861 -0.8777801 255 255 255 255 
40.7646 -0.2878558 12.27168 -0.3583248 0.3193091 0.8772941 255 255 255 255 
41.44731 -0.8874304 10.62464 -1.111461e-07 -0.9396927 0.34202 255 255 255 255 
14.72179 3.130548 16.07397 0.4330134 0.2133305 -0.8757794 255 255 255 255 
16.38361 -3.263505 15.3381 0.4330134 0.2133305 -0.8757794 255 255 255 255 
13.81912 -3.769913 13.94679 0.4330134 0.2133305 -0.8757794 255 255 255 255 
13.81907 7.049212 10.00892 0.433012 -0.726362 -0.5337592 255 255 255 255 
16.38364 7.555688 11.40026 0.433012 -0.726362 -0.5337592 255 255 255 255 
14.72179 3.130548 16.07397 0.433012 -0.726362 -0.5337592 255 255 255 255 
19.70731 5.586758 5.990672 -8.854333e-07 -0.9396929 0.3420196 255 255 255 255 
16.38364 7.555688 11.40026 -8.854333e-07 -0.9396929 0.3420196 255 255 255 255 
13.81907 7.049212 10.00892 -8.854333e-07 -0.9396929 0.3420196 255 255 255 255 
21.36912 -0.8073055 5.254808 -0.4330126 -0.2133317 0.8757795 255 255 255 255 
17.14278 -5.738842 8.537208 -0.433012 0.726362 0.5337592 255 255 255 255 
19.70727 -5.232432 9.928525 -0.433012 0.726362 0.5337592 255 255 255 255 
21.36912 -0.8073055 5.254808 -0.433012 0.726362 0.5337592 255 255 255 255 
19.70727 -5.232432 9.928525 8.854333e-07 0.9396929 -0.3420196 255 255 255 255 
15.92171 -4.493366 16.63707 -0.4330126 -0.2133317 0.8757795 255 255 255 255 
13.79803 3.67778 17.57748 -0.433013 0.7263615 0.5337591 255 255 255 255 
13.35717 8.82638 10.21341 1.111461e-07 0.9396927 -0.34202 255 255 255 255 
15.92178 9.33278 11.6048 1.111461e-07 0.9396927 -0.34202 255 255 255 255 
20.16921 6.816617 4.691708 1.111461e-07 0.9396927 -0.34202 255 255 255 255 
17.6046 6.310218 3.300316 0.4330126 0.2133317 -0.8757795 255 255 255 255 
22.29288 -1.354537 3.7513 0.433013 -0.7263615 -0.5337591 255 255 255 255 
20.16914 -7.009527 9.723972 -1.111461e-07 -0.9396927 0.34202 255 255 255 255 
16.38361 -3.263505 15.3381 0.8660259 0.1710101 0.4698455 255 255 255 255 
14.72179 3.130548 16.07397 0.8660259 0.1710101 0.4698455 255 255 255 255 
13.79803 3.67778 17.57748 0.8660259 0.1710101 0.4698455 255 255 255 255 
14.72179 3.130548 16.07397 0.8660249 0.1710102 0.4698473 255 255 255 255 
16.38364 7.555688 11.40026 0.8660249 0.1710102 0.4698473 255 255 255 255 
15.92178 9.33278 11.6048 0.8660249 0.1710102 0.4698473 255 255 255 255 
17.14274 5.080284 4.599332 -0.8660254 -0.1710099 -0.4698465 255 255 255 255 
16.38364 7.555688 11.40026 0.8660254 0.1710099 0.4698465 255 255 255 255 
19.70731 5.586758 5.990672 0.8660254 0.1710099 0.4698465 255 255 255 255 
20.16921 6.816617 4.691708 0.8660254 0.1710099 0.4698465 255 255 255 255 
21.36912 -0.8073055 5.254808 0.8660254 0.1710099 0.4698465 255 255 255 255 
17.14278 -5.738842 8.537208 -0.8660254 -0.1710099 -0.4698465 255 255 255 255 
3.49538 -5.158214 1.930942 -1.111461e-07 -0.9396927 0.34202 255 255 255 255 
4.347507 -2.88929 -0.4653866 0.433013 -0.7263615 -0.5337591 255 255 255 255 
3.495419 0.3890977 -0.08808906 0.4330126 0.2133317 -0.8757795 255 255 255 255 
1.791279 1.398624 2.685562 1.111461e-07 0.9396927 -0.34202 255 255 255 255 
0.9392278 -0.8702378 5.081913 -0.433013 0.7263615 0.5337591 255 255 255 255 
1.79124 -4.148687 4.704592 -0.4330134 -0.2133305 0.8757794 255 255 255 255 
-36.37617 -11.68538 -16.00247 -0.8660254 -0.1710099 -0.4698465 255 255 255 255 
-37.22827 -8.40699 -15.62517 -0.8660254 -0.1710099 -0.4698465 255 255 255 255 
-33.81999 -10.42604 -21.17248 -0.8660254 -0.1710099 -0.4698465 255 255 255 255 
10.15899 -3.75057 -2.831721 0.8660254 0.1710099 0.4698465 255 255 255 255 
-1.604056 0.636395 9.221353 -0.4330126 -0.2133317 0.8757795 255 255 255 255 
0.5196047 -7.534768 8.280937 -0.4330126 -0.2133317 0.8757795 255 255 255 255 
3.787895 -6.889338 10.05407 -0.4330126 -0.2133317 0.8757795 255 255 255 255 
-1.604056 0.636395 9.221353 -0.433013 0.7263615 0.5337591 255 255 255 255 
3.787884 6.936745 5.021782 1.111461e-07 0.9396927 -0.34202 255 255 255 255 
8.035314 4.420584 -1.891313 0.4330126 0.2133317 -0.8757795 255 255 255 255 
10.15899 -3.75057 -2.831721 0.433013 -0.7263615 -0.5337591 255 255 255 255 
8.035325 -9.405499 3.140976 -1.111461e-07 -0.9396927 0.34202 255 255 255 255 
1.79124 -4.148687 4.704592 -0.8660253 -0.1710104 -0.4698463 255 255 255 255 
3.49538 -5.158214 1.930942 -0.8660253 -0.1710104 -0.4698463 255 255 255 255 
4.767034 -10.05093 1.367843 -0.8660253 -0.1710104 -0.4698463 255 255 255 255 
3 0 1 2 
3 3 4 5 
3 6 7 8 
3 9 10 11 
3 12 13 14 
3 15 16 17 
3 18 19 20 
3 13 21 22 
3 23 24 25 
3 26 27 16 
3 28 29 30 
3 31 32 33 
3 34 35 36 
3 37 38 39 
3 40 41 42 
3 43 44 45 
3 46 47 48 
3 49 50 51 
3 52 53 54 
3 55 56 57 
3 58 59 60 
3 61 62 63 
3 64 65 66 
3 67 68 69 
3 70 71 72 
3 73 74 75 
3 76 77 78 
3 79 80 81 
3 82 83 84 
3 85 86 87 
3 88 82 84 
3 86 89 87 
3 90 91 92 
3 93 94 95 
3 96 97 98 
3 99 100 101 
3 102 103 104 
3 105 106 107 
3 108 109 110 
3 111 112 113 
3 114 115 116 
3 109 117 118 
3 119 120 121 
3 122 123 112 
3 124 125 126 
3 127 128 129 
3 130 131 132 
3 133 134 135 
3 136 137 138 
3 139 140 141 
3 142 143 144 
3 138 145 146 
3 147 148 149 
3 150 151 140 
3 152 153 154 
3 155 156 157 
3 158 159 160 
3 161 162 163 
3 164 165 166 
3 167 168 169 
3 170 171 172 
3 173 174 175 
3 176 174 177 
3 153 178 179 
3 177 180 176 
3 181 182 183 
3 178 184 179 
3 185 186 187 
3 188 189 190 
3 191 192 193 
3 194 195 196 
3 197 198 199 
3 200 201 202 
3 203 204 205 
3 206 207 208 
3 201 209 210 
3 211 212 213 
3 214 215 204 
3 216 217 218 
3 219 220 221 
3 222 223 224 
3 225 226 227 
3 228 229 230 
3 231 232 233 
3 234 235 236 
3 237 238 239 
3 240 241 242 
3 243 244 245 
3 246 247 248 
3 249 250 251 
3 252 253 254 
3 255 256 257 
3 258 259 252 
3 260 261 262 
3 263 264 258 
3 265 266 267 
3 268 263 269 
3 270 271 272 
3 273 274 275 
3 276 277 278 
3 253 279 254 
3 280 257 281 
3 282 283 284 
3 285 286 287 
3 288 289 290 
3 291 292 293 
3 294 295 296 
3 297 298 299 
3 300 301 302 
3 303 304 305 
3 306 307 308 
3 309 310 311 
3 312 313 314 
3 315 316 317 
3 318 319 320 
3 321 322 323 
3 324 325 326 
3 324 327 328 
3 329 327 330 
3 331 330 332 
3 331 333 334 
3 335 333 325 
3 304 336 337 
3 0 338 1 
3 3 339 4 
3 6 340 7 
3 9 341 10 
3 12 342 13 
3 15 26 16 
3 18 343 19 
3 13 342 21 
3 23 344 24 
3 26 345 27 
3 28 346 29 
3 31 347 32 
3 348 349 350 
3 37 351 38 
3 352 353 354 
3 43 355 44 
3 46 356 47 
3 49 357 50 
3 52 358 53 
3 55 359 56 
3 58 360 59 
3 61 361 62 
3 362 363 364 
3 365 366 367 
3 368 369 370 
3 73 371 74 
3 372 373 374 
3 375 376 377 
3 378 379 380 
3 381 382 383 
3 384 385 386 
3 387 388 389 
3 90 390 91 
3 93 391 94 
3 96 392 97 
3 99 393 100 
3 102 394 103 
3 105 395 106 
3 108 396 109 
3 111 122 112 
3 114 397 115 
3 109 396 117 
3 119 398 120 
3 122 399 123 
3 124 400 125 
3 127 401 128 
3 130 402 131 
3 133 403 134 
3 136 404 137 
3 139 150 140 
3 142 405 143 
3 138 137 145 
3 147 406 148 
3 150 407 151 
3 152 408 153 
3 155 409 156 
3 158 410 159 
3 161 411 162 
3 164 412 165 
3 167 413 168 
3 170 414 171 
3 173 415 174 
3 176 175 174 
3 153 408 178 
3 177 416 180 
3 181 417 182 
3 178 418 184 
3 185 419 186 
3 188 420 189 
3 191 421 192 
3 194 422 195 
3 197 423 198 
3 200 424 201 
3 203 214 204 
3 206 425 207 
3 201 424 209 
3 211 426 212 
3 214 427 215 
3 428 429 430 
3 431 432 433 
3 434 435 436 
3 225 437 226 
3 438 439 440 
3 231 441 232 
3 234 442 235 
3 237 443 238 
3 444 445 446 
3 243 447 244 
3 246 448 247 
3 249 449 250 
3 252 259 253 
3 450 451 452 
3 258 264 259 
3 453 454 455 
3 263 456 264 
3 457 458 459 
3 268 456 263 
3 459 458 460 
3 279 461 268 
3 460 280 281 
3 253 461 279 
3 280 255 257 
3 282 462 283 
3 285 463 286 
3 288 464 289 
3 291 465 292 
3 294 466 295 
3 297 467 298 
3 302 468 469 
3 469 300 302 
3 301 470 302 
3 303 471 304 
3 472 473 474 
3 309 475 310 
3 312 476 313 
3 315 477 316 
3 318 478 319 
3 321 479 322 
3 324 335 325 
3 324 326 327 
3 329 328 327 
3 331 329 330 
3 331 332 333 
3 480 481 482 
3 304 471 336 
